<?xml version="1.0" encoding="UTF-8" standalone="no"?>
<svg
   xmlns:dc="http://purl.org/dc/elements/1.1/"
   xmlns:cc="http://creativecommons.org/ns#"
   xmlns:rdf="http://www.w3.org/1999/02/22-rdf-syntax-ns#"
   xmlns:svg="http://www.w3.org/2000/svg"
   xmlns="http://www.w3.org/2000/svg"
   xmlns:sodipodi="http://sodipodi.sourceforge.net/DTD/sodipodi-0.dtd"
   xmlns:inkscape="http://www.inkscape.org/namespaces/inkscape"
   version="1.1"
   id="svg2"
   width="256"
   height="256"
   viewBox="0 0 256 256"
   sodipodi:docname="icon-256x256.svg"
   inkscape:export-filename="/home/arthur/dev/svn/advanced-settings/assets/icon-256x256.png"
   inkscape:export-xdpi="96"
   inkscape:export-ydpi="96"
   inkscape:version="1.0.1 (0767f8302a, 2020-10-17)">
  <metadata
     id="metadata8">
    <rdf:RDF>
      <cc:Work
         rdf:about="">
        <dc:format>image/svg+xml</dc:format>
        <dc:type
           rdf:resource="http://purl.org/dc/dcmitype/StillImage" />
        <dc:title></dc:title>
      </cc:Work>
    </rdf:RDF>
  </metadata>
  <defs
     id="defs6" />
  <sodipodi:namedview
     pagecolor="#ffffff"
     bordercolor="#666666"
     borderopacity="1"
     objecttolerance="10"
     gridtolerance="10"
     guidetolerance="10"
     inkscape:pageopacity="0"
     inkscape:pageshadow="2"
     inkscape:window-width="1366"
     inkscape:window-height="717"
     id="namedview4"
     showgrid="false"
     inkscape:zoom="0.6729476"
     inkscape:cx="-2.7559505"
     inkscape:cy="244.66277"
     inkscape:window-x="0"
     inkscape:window-y="25"
     inkscape:window-maximized="1"
     inkscape:current-layer="g118" />
  <g
     inkscape:groupmode="layer"
     inkscape:label="Image"
     id="g10">
    <g
       id="g118"
       transform="matrix(0.27767935,0,0,-0.27767935,12.980251,170.59083)">
      <path
         style="fill:#0f9d58;fill-opacity:1;stroke-width:1.03524"
         d="m 475.97077,103.44374 c 0.21821,-1.42347 0.64179,-4.102122 0.94109,-5.952642 l 0.54418,-3.3645 6.95036,-2e-5 6.95046,2e-5 2.0338,-8.540731 c 1.11847,-4.697422 2.18505,-9.062827 2.37001,-9.70083 0.18473,-0.638135 -2.24871,-2.875803 -5.40786,-4.972793 -3.15916,-2.096858 -5.74637,-4.13701 -5.74949,-4.533604 -4.6e-4,-0.396716 1.46476,-4.375741 3.26174,-8.842494 3.23899,-8.05109 3.29498,-8.115779 6.47576,-7.47797 1.7648,0.353848 4.88681,0.912441 6.93793,1.241353 l 3.72918,0.597957 4.90214,-8.497637 4.90202,-8.497622 -2.93728,-3.19642 c -1.61522,-1.758071 -3.8635,-3.993501 -4.9964,-4.967545 -2.03803,-1.752983 -2.02295,-1.822969 1.45788,-6.789095 1.93435,-2.759864 4.67115,-6.273889 6.08169,-7.809061 l 2.56439,-2.7909992 6.17605,3.1176152 c 3.39688,1.714775 6.26609,2.970736 6.37608,2.791115 0.10978,-0.179862 3.15904,-3.465147 6.77571,-7.3011162 l 6.57558,-6.97462565 -3.25297,-6.10334875 -3.25308,-6.1032694 4.39572,-3.543115 c 2.41769,-1.9487 5.86193,-4.563224 7.654,-5.810096 l 3.25839,-2.266942 5.17923,4.656511 5.1792,4.65662 7.50511,-4.627219 c 4.12772,-2.544937 7.94452,-4.773696 8.48173,-4.952876 0.59022,-0.196712 0.45528,-2.975911 -0.34075,-7.022344 -0.72473,-3.68329 -1.1544,-6.929804 -0.9548,-7.214479 0.49575,-0.707175 15.39981,-7.246692 16.51585,-7.246684 0.49233,-8e-6 2.08772,1.979826 3.54525,4.399785 1.45766,2.419834 3.06026,5.009313 3.56134,5.754263 0.73014,1.085443 2.79302,0.781511 10.38848,-1.530709 l 9.47758,-2.88522 1.2e-4,-6.946557 -1.3e-4,-6.946581 4.91744,-0.773914 c 2.70465,-0.425626 7.17766,-0.803588 9.94041,-0.839813 l 5.02288,-0.06619 2.17474,6.500459 c 1.53018,4.573824 2.59786,6.338035 3.60257,5.952622 0.78503,-0.301377 5.28022,-0.547846 9.98887,-0.547822 l 8.56123,-7e-6 1.79887,-6.64475 1.79875,-6.644641 5.86047,0.554786 c 3.22313,0.305148 7.49101,0.868862 9.4839,1.252636 l 3.6232,0.697639 0.30448,6.871005 0.30449,6.870873 6.94225,1.727008 c 13.19336,3.281897 12.71014,3.37353 16.615,-3.150365 1.90397,-3.180692 3.80349,-5.642267 4.22141,-5.470175 0.4178,0.172023 4.37288,1.710267 8.78879,3.41845 l 8.02934,3.105712 -0.63181,4.140967 c -0.34741,2.277527 -0.88019,5.538522 -1.18379,7.246704 -0.49309,2.772753 -0.12928,3.324558 3.39223,5.146774 2.16954,1.122655 5.68219,3.102615 7.80605,4.399865 2.12372,1.297123 4.47488,2.358661 5.22489,2.358692 0.74979,7e-6 3.18277,-1.863434 5.40686,-4.140953 2.22389,-2.277519 4.44728,-4.140983 4.94094,-4.140961 1.1382,-1.5e-5 9.79703,5.912989 13.06707,8.923243 l 2.47945,2.282528 -3.35164,5.9388374 -3.35178,5.9388455 7.09217,7.0921319 7.09218,7.0920952 6.34248,-3.3263402 6.34259,-3.326228 2.94671,3.50185 c 1.62068,1.9259312 4.27575,5.3365402 5.90017,7.5789482 l 2.95338,4.077107 -2.93408,3.222285 c -1.61357,1.772232 -3.77942,4.015894 -4.81263,4.98583 -1.81062,1.69944 -1.78779,1.907121 0.63091,5.724789 1.38029,2.178733 3.73542,6.133153 5.23333,8.787608 l 2.72393,4.82619 5.44481,-1.449746 c 2.99472,-0.796692 6.17504,-1.454936 7.06765,-1.461667 1.86406,-0.01453 8.83048,15.748088 7.74016,17.512442 -0.36868,0.596737 -2.85921,2.338082 -5.53436,3.869639 -2.67515,1.531544 -5.00256,2.879135 -5.17194,2.994597 -0.1692,0.115584 0.97335,4.41894 2.53944,9.563133 3.12624,10.269586 3.48216,10.563177 12.80275,10.563177 l 3.90516,1e-5 1.14143,6.555008 c 2.12816,12.219982 2.0247,12.519392 -5.06978,14.667402 l -6.21141,1.8806 -10e-6,10.14866 -1.2e-4,10.14858 4.39973,1.1105 c 8.63196,2.17867 9.29682,2.71613 8.672,7.01034 -0.30937,2.12536 -0.85867,6.30998 -1.22036,9.29926 l -0.65808,5.435 -4.82019,0.0145 c -7.19906,0.0207 -9.42269,0.90129 -10.08501,3.99172 -0.321,1.49778 -1.43636,5.6688 -2.48332,9.26777 l -1.8952,6.54569 5.85472,3.69934 c 3.22014,2.03467 5.9953,3.81061 6.16706,3.94654 0.17186,0.13594 -1.2257,4.07169 -3.10572,8.74624 l -3.41795,8.49901 -5.17623,-0.619 c -2.84691,-0.34047 -6.10796,-0.86782 -7.24661,-1.17188 -1.74065,-0.46524 -2.79283,0.86807 -6.60475,8.36786 l -4.5342,8.92064 4.27529,4.35636 c 2.35161,2.396 4.27553,4.90544 4.2754,5.57662 1.3e-4,1.81228 -9.62273,14.7476 -10.97083,14.74761 -0.63836,-1e-5 -3.67188,-1.30348 -6.74124,-2.89671 l -5.58072,-2.89671 -6.77992,7.04484 -6.77979,7.04478 3.14409,6.28866 3.14406,6.28869 -3.61091,3.07105 c -1.98601,1.68899 -5.34553,4.26695 -7.4656,5.7288 l -3.85473,2.65788 -5.30295,-4.43993 c -5.23467,-4.38271 -5.33834,-4.4175 -8.05055,-2.6992 -1.51122,0.95725 -5.37437,3.17164 -8.58473,4.9208 l -5.83709,3.18012 1.42501,5.35246 c 0.78413,2.94358 1.43062,6.09858 1.43728,7.01073 0.0122,1.70897 -12.5241,8.17633 -15.84968,8.17634 -0.94662,10e-6 -3.23878,-2.32091 -5.09372,-5.15755 -1.85485,-2.83675 -4.03825,-5.16605 -4.85191,-5.17619 -0.81364,-0.0104 -4.77349,0.97643 -8.79952,2.19253 -4.02605,1.21621 -7.90239,2.36628 -8.61415,2.55572 -0.86622,0.23049 -1.29411,2.55654 -1.29411,7.0361 1.2e-4,5.47364 -0.32976,6.79191 -1.81159,7.24153 -3.53759,1.07342 -15.90612,2.7444 -16.69682,2.25566 -0.44187,-0.273 -1.65637,-3.31379 -2.699,-6.75733 l -1.89566,-6.26091 H 658.47676 648.4033 l -1.85241,6.84469 -1.8524,6.84466 -7.32047,-0.70041 c -11.38211,-1.08898 -11.97753,-1.34119 -11.99063,-5.07785 -0.0111,-1.78879 -0.28608,-4.91316 -0.62194,-6.94306 -0.59635,-3.60416 -0.78405,-3.7338 -8.01172,-5.5287 -4.07061,-1.01092 -8.33294,-2.04377 -9.47158,-2.29533 -1.60992,-0.35548 -2.84838,0.81681 -5.56732,5.2699 -1.92337,3.15 -3.73875,5.72723 -4.03456,5.72725 -1.3122,0 -13.39498,-4.67016 -15.44596,-5.97012 -1.80351,-1.14305 -2.08871,-1.92362 -1.38227,-3.78163 0.48955,-1.28772 1.04572,-4.28426 1.23724,-6.65877 l 0.34715,-4.31736 -8.46234,-4.61708 -8.46201,-4.61695 -5.22234,4.69519 -5.22213,4.69527 -7.27923,-5.42987 c -4.00352,-2.98645 -7.27923,-5.80124 -7.27934,-6.25521 1.1e-4,-0.45387 1.26683,-3.40787 2.81498,-6.56455 l 2.81475,-5.73926 -6.98727,-6.96533 -6.98734,-6.9654 -5.1453,2.84689 c -2.82972,1.56579 -5.80026,2.84695 -6.60106,2.84696 -1.52574,-3e-5 -8.70518,-8.07934 -10.91407,-12.28224 -1.17344,-2.2327 -0.91422,-2.82639 2.95436,-6.76819 2.33216,-2.37654 4.24049,-4.83115 4.24048,-5.45487 1.1e-4,-1.92421 -9.56705,-16.90666 -10.77081,-16.86747 -0.62382,0.0207 -3.79042,0.67178 -7.03682,1.44775 l -5.90228,1.41096 -2.83164,-7.40042 c -1.55732,-4.07026 -3.24464,-7.95523 -3.74971,-8.6334 -0.63347,-0.85066 0.8966,-2.4379 4.93406,-5.1185 4.58677,-3.04552 5.74926,-4.34578 5.37603,-6.01373 -0.26175,-1.17047 -1.347,-5.48688 -2.41146,-9.59202 l -1.93544,-7.46391 -7.23698,-0.30041 -7.2372,-0.30046 -0.63646,-4.65854 c -0.35005,-2.56223 -0.92343,-6.83964 -1.27415,-9.50536 l -0.6377,-4.84692 3.85262,-1.18194 c 10.27195,-3.15136 9.54655,-2.11966 9.54657,-13.57808 -2e-5,-6.72546 -0.38855,-10.22683 -1.1347,-10.22682 -0.62424,-1e-5 -3.65222,-0.73182 -6.7291,-1.62638 -5.50712,-1.60088 -5.59217,-1.68569 -5.45335,-5.43499 0.0776,-2.09477 0.31955,-4.9733 0.5379,-6.39675 z m 107.50363,10.35241 c 27.40909,-2e-5 29.50433,-0.12866 29.50454,-1.81167 3.3e-4,-2.18466 4.70121,-11.17813 8.2816,-15.844142 1.42352,-1.85493 2.50841,-3.649344 2.41081,-3.987342 -0.0975,-0.338028 -2.77607,-4.941819 -5.95244,-10.230765 -3.17648,-5.288926 -5.7754,-9.814594 -5.77549,-10.057129 -4.8e-4,-0.242577 -2.73183,-4.99941 -6.07087,-10.570932 -3.3391,-5.571476 -7.09279,-12.144001 -8.34167,-14.605641 l -2.27076,-4.47559 -4.62968,3.793762 c -11.52837,9.446593 -21.96508,22.969575 -28.23761,36.58768 -3.4204,7.425879 -8.22407,23.744269 -8.34692,28.354809 l -0.0755,2.84691 z m -26.87529,37.78627 c 3.18998,12.6521 8.74985,24.08466 17.36911,35.71577 5.46428,7.37374 18.74882,20.7048 20.63239,20.70483 0.29939,2e-5 6.25133,-9.89951 13.22685,-21.99887 6.97497,-12.09958 13.49819,-23.34402 14.49514,-24.98818 1.80284,-2.97311 1.79298,-3.01515 -1.83334,-7.76431 -3.35497,-4.39389 -6.55483,-10.3967 -7.92545,-14.86853 -0.51163,-1.66911 -2.83903,-1.81167 -29.57451,-1.81167 h -29.01922 l 0.0111,2.3293 c 10e-5,1.2811 1.18402,6.98783 2.61971,12.6817 z M 622.46264,43.257254 c 3.50838,6.056777 8.33805,14.50648 10.73329,18.776925 2.39538,4.270435 5.72218,10.079656 7.39298,12.90947 l 3.03787,5.145105 12.58509,0.101456 12.58517,0.10042 13.75921,-23.864138 c 7.5673,-13.125502 13.89217,-24.361802 14.05461,-24.970122 0.31979,-1.197164 -9.55542,-4.919993 -17.89436,-6.745917 -10.02368,-2.19483 -22.16701,-2.934324 -31.83774,-1.938691 -13.47458,1.387212 -30.79434,6.13813 -30.79434,8.447105 -10e-5,0.56431 2.87009,5.981612 6.37819,12.038512 z m 2.71219,180.498886 c 12.25341,4.06862 28.46935,5.68547 41.93293,4.18094 9.78051,-1.09302 26.96522,-5.53513 29.05536,-7.51079 0.48569,-0.45887 -3.91094,-9.14871 -9.7701,-19.31052 -5.85927,-10.16186 -12.21811,-21.2713 -14.13085,-24.68758 l -3.47775,-6.21147 -12.32915,2e-5 -12.32905,3e-5 -2.19116,3.62332 c -11.99804,19.84058 -25.71423,44.30196 -25.53414,45.53739 0.13658,0.93732 3.56964,2.65065 8.77392,4.37868 z m 14.24187,-91.58916 c 2.14514,5.13367 4.35228,7.44235 9.27766,9.70413 5.46319,2.50861 10.24734,2.43325 15.78782,-0.24884 11.75975,-5.69291 13.53377,-21.69822 3.35431,-30.26372 -14.29967,-12.032382 -35.61929,3.57741 -28.41979,20.80843 z m 53.2994,-33.661642 c 2.29084,3.000862 4.96234,7.668852 5.93675,10.373422 l 1.77202,4.91742 29.32468,-3e-5 h 29.32493 l -0.70965,-4.91738 c -1.07311,-7.43642 -5.43756,-20.613785 -9.51495,-28.727878 -6.87085,-13.673478 -14.14507,-23.119206 -25.13766,-32.642197 l -5.99143,-5.190595 -8.25521,14.257792 c -4.54031,7.841832 -9.18153,15.888432 -10.3142,17.88116 -1.13244,1.992854 -3.95651,6.88435 -6.27563,10.870035 -2.31901,3.985726 -4.24083,7.35372 -4.27065,7.484451 -0.0343,0.12945 1.82036,2.69309 4.11097,5.69381 z m 3.24387,72.377252 c 4.0749,7.03574 10.43541,18.14962 14.13416,24.69753 3.69861,6.54788 6.85182,12.06439 7.00681,12.259 1.13222,1.42128 14.26837,-11.02034 21.37929,-20.24908 9.57716,-12.42953 17.52301,-30.98545 19.96275,-46.61885 l 0.6866,-4.39977 -29.59537,1e-5 c -25.86215,-3e-5 -29.59535,0.19956 -29.59524,1.58234 0,2.2213 -5.57508,12.81329 -8.70286,16.53433 -1.4357,1.70816 -2.62714,3.17241 -2.64766,3.25398 -0.0222,0.0812 3.29685,5.90479 7.37172,12.94048 z"
         id="path95"
         sodipodi:nodetypes="cscccssscssscccsssscssscccsscccsssssssscccsscssscccsscccsssscsssssssscccccccsscsssscssssssscsscccsssccsscssscssscsssscccccsscssscssssssssssscccccscsssssssscccccssscccssssssscssssscccsscsssssccsssssssscssscscsssssssccccsssccccssssssssssscccssssssssssscccssscssssssssssscssscss"
         inkscape:transform-center-x="-391.69228"
         inkscape:transform-center-y="-174.94218" />
      <path
         style="fill:#db4437;fill-opacity:1;stroke-width:1.03524"
         d="m 77.091336,319.88389 0.629492,-4.14097 6.857748,-0.88121 6.857647,-0.88127 0.648553,-5.33018 c 0.356496,-2.93168 0.936517,-7.04249 1.288359,-9.13547 0.638128,-3.79444 0.622158,-3.81401 -5.617648,-6.96392 l -6.257663,-3.15874 0.986967,-3.90623 c 0.543535,-2.1482 1.514324,-5.93429 2.157998,-8.41349 l 1.170921,-4.50715 7.083846,0.40023 c 6.407899,0.36209 7.143504,0.19959 7.711894,-1.70414 0.34572,-1.15746 1.79107,-5.05787 3.21227,-8.66778 l 2.58412,-6.56315 -3.47284,-2.97561 c -1.90997,-1.63649 -4.287953,-3.25654 -5.284338,-3.60004 -0.996396,-0.34356 -1.811716,-1.30357 -1.811726,-2.13354 0,-1.33667 6.897464,-15.9627 7.518404,-15.94271 0.13534,1.5e-4 3.1401,0.8881 6.67747,1.96395 l 6.43164,1.95586 3.10626,-5.32847 c 1.70882,-2.93043 3.92359,-6.59923 4.92297,-8.15198 1.79241,-2.78647 1.77546,-2.86803 -1.31018,-6.21145 -6.00961,-6.51173 -5.99257,-6.45329 -3.15561,-10.81543 1.41651,-2.17803 3.7426,-5.3576 5.16946,-7.06574 l 2.59388,-3.10572 5.71532,2.94895 c 3.14353,1.62195 6.08601,2.78655 6.53921,2.58814 0.4532,-0.19834 3.52783,-3.22456 6.83247,-6.72459 l 6.00864,-6.36371 -3.1616,-5.1384 c -1.73898,-2.82616 -3.16173,-5.63196 -3.16171,-6.23516 -2e-5,-1.45755 11.44386,-11.61478 13.08604,-11.61478 0.70687,2e-5 1.52507,0.38828 1.81847,0.86311 0.29335,0.47465 2.4037,2.15915 4.68978,3.74339 l 4.15645,2.88045 7.27657,-5.39431 c 4.00208,-2.96693 7.27665,-5.51024 7.27666,-5.65188 -7e-5,-0.14152 -0.94317,-2.9987 -2.0958,-6.34887 l -2.09567,-6.09122 2.24493,-1.69334 c 1.2349,-0.93138 4.6473,-2.99286 7.58349,-4.58114 l 5.33833,-2.8878 4.74168,5.01851 4.74178,5.01865 8.14599,-3.74785 c 8.84933,-4.07131 8.29558,-3.10408 7.48015,-13.06354 l -0.36879,-4.50243 8.07936,-2.95029 8.07946,-2.95042 2.79057,4.49842 c 1.53489,2.47421 3.25664,5.20934 3.8259,6.07799 0.91799,1.4004 2.06042,1.32484 10.08987,-0.66919 l 9.05458,-2.24852 -10e-6,-6.86859 v -6.86857 l 5.95251,-0.69172 c 3.27403,-0.38033 7.39787,-0.93884 9.16413,-1.2409 3.18344,-0.54468 3.22858,-0.48907 5.17622,6.36708 l 1.96403,6.91645 4.54418,-0.61856 c 2.49941,-0.34018 6.73425,-0.61852 9.41073,-0.6185 l 4.86632,-5e-5 1.34533,-5.60821 c 2.0042,-8.35447 1.74984,-8.18727 11.18917,-7.35163 9.17177,0.8118 9.49254,1.11347 9.52215,8.95102 0.0177,4.68898 1.19245,5.62442 8.18238,6.51411 3.06911,0.39062 6.84744,0.9637 8.39648,1.27353 2.60662,0.52137 3.03408,0.0921 5.73529,-5.75929 2.10166,-4.55236 3.37383,-6.18734 4.54385,-5.83946 0.89396,0.26569 4.82984,1.27392 8.74666,2.24046 l 7.12187,1.75748 -0.646,6.95102 -0.64601,6.95091 8.93051,3.2533 c 9.95581,3.62674 9.02951,3.87688 13.91854,-3.75725 1.18545,-1.85034 2.75288,-3.36454 3.48406,-3.36456 0.73104,-10e-6 4.60194,1.63721 8.60182,3.63831 l 7.27246,3.63827 -2.01562,6.45533 c -1.85118,5.92803 -1.87792,6.53979 -0.32556,7.49048 0.92964,0.56946 4.43298,2.8077 7.78528,4.97392 6.7643,4.37122 7.54646,4.29433 12.8339,-1.26147 1.67236,-1.75718 3.60824,-3.19482 4.30193,-3.19481 0.69369,0 3.24575,1.65804 5.67132,3.6846 2.42576,2.02649 5.29696,4.30568 6.38073,5.06475 1.9084,1.33667 1.87181,1.57485 -1.15928,7.57968 l -3.12954,6.19964 3.83487,3.38639 c 2.10909,1.86247 5.30096,4.75805 7.09284,6.43465 l 3.25805,3.04826 5.75483,-3.68133 5.75501,-3.68143 5.73454,6.42845 c 3.15404,3.53554 5.73661,6.71215 5.73918,7.05906 -4e-5,0.34694 -1.62135,2.67623 -3.60858,5.17622 -1.98747,2.50001 -3.61788,5.17755 -3.62342,5.95003 -0.0111,0.77261 1.73697,3.63339 3.87212,6.35721 2.13517,2.72394 4.37201,5.77624 4.97065,6.78288 1.0328,1.73653 1.42562,1.71668 7.66144,-0.38919 7.57749,-2.55903 6.97619,-2.90832 12.43871,7.22606 l 3.1546,5.85282 -5.25095,4.52396 -5.25107,4.52402 3.94931,8.5078 3.94953,8.50771 4.14102,-0.56448 c 2.27742,-0.3106 5.35175,-0.79414 6.8317,-1.07481 2.5207,-0.47787 2.86443,-0.0332 5.44002,7.04338 1.51198,4.15431 2.7469,8.08688 2.74423,8.73899 -1.1e-4,0.65195 -2.45085,2.45399 -5.44,4.0045 -2.9893,1.55037 -5.60359,2.97102 -5.80926,3.15707 -0.20582,0.1859 0.68025,4.55659 1.96905,9.71243 l 2.34317,9.3743 6.46102,1e-5 c 7.52393,0 7.47637,-0.0611 8.39603,10.81804 l 0.62616,7.40694 -6.34614,1.92143 -6.34603,1.92138 -10e-6,9.54149 v 9.54151 l 3.30807,0.6616 c 1.81958,0.36393 4.964,1.10635 6.98783,1.64996 l 3.67976,0.9883 -0.32112,8.05551 c -0.35705,8.95201 -1.43993,10.63347 -6.86454,10.65758 -6.97107,0.0311 -7.50764,0.5782 -8.7482,8.91913 -1.63053,10.96257 -1.76103,10.57899 4.54631,13.36838 6.41976,2.83913 6.4313,2.87847 3.76092,12.89656 l -1.79176,6.7296 -7.00822,2e-5 -7.00823,-4e-5 -3.02998,7.76434 c -1.66646,4.27036 -3.03164,8.30861 -3.03363,8.97389 -2e-5,0.66533 1.54082,2.16434 3.42874,3.33121 1.88788,1.16675 4.24681,3.0211 5.24187,4.12064 1.73431,1.91633 1.65569,2.30433 -1.89277,9.35061 -2.03613,4.04323 -4.27852,7.34585 -4.98297,7.33903 -0.70465,-0.0104 -3.73774,-0.66619 -6.74021,-1.4655 l -5.45898,-1.45354 -3.70825,5.79684 c -6.42431,10.04308 -6.40314,9.8353 -1.57585,15.31937 4.2418,4.81885 4.2549,4.85944 2.52047,7.79556 -0.95892,1.62328 -3.39979,4.87456 -5.42418,7.22506 l -3.68073,4.27368 -5.0659,-2.69347 c -2.78615,-1.48163 -5.61954,-2.6936 -6.29624,-2.69363 -1.24589,1e-5 -12.95833,12.01711 -12.95022,13.28703 -4.8e-4,0.37867 1.39801,2.78509 3.10137,5.34732 1.70327,2.56226 3.09883,4.98932 3.10114,5.39352 0.0111,0.85419 -9.83418,10.23544 -12.08743,11.52472 -1.06977,0.6125 -3.02234,-0.39143 -6.55395,-3.3694 l -5.02995,-4.24139 -7.73507,5.74879 -7.73506,5.74891 2.40982,6.14901 2.40981,6.14901 -2.76521,1.89688 c -1.52074,1.04333 -5.05391,3.20934 -7.85115,4.81335 -4.37076,2.5063 -5.2443,2.70113 -6.21153,1.38628 -0.61883,-0.84141 -2.60465,-3.21132 -4.41246,-5.26635 l -3.28701,-3.73642 -8.3478,3.79209 -8.34792,3.79211 0.24716,7.16604 0.24738,7.1661 -7.18952,2.44774 c -3.9543,1.34622 -7.71789,2.4477 -8.36387,2.44773 -0.64568,-2e-5 -2.27944,-2.35987 -3.63041,-5.2441 -1.35079,-2.88429 -2.78793,-5.44923 -3.19332,-5.69974 -0.64111,-0.39614 -11.48389,1.74439 -16.70325,3.29756 -1.47873,0.44008 -1.81158,1.74792 -1.81149,7.11613 0,7.45519 0.74303,6.92351 -12.05649,8.62793 l -6.36267,0.84732 -1.85707,-6.13338 c -1.02133,-3.37332 -2.49686,-6.37884 -3.27902,-6.67893 -0.78216,-0.30013 -5.21715,-0.13509 -9.85579,0.36679 l -8.43383,0.91233 -1.45636,5.99115 -1.4561,5.99124 -8.93738,-0.29744 -8.93735,-0.29729 -0.87698,-6.82423 -0.87707,-6.82409 -7.92258,-1.20585 c -11.2955,-1.7191 -10.89056,-1.85389 -13.5247,4.50175 -2.68334,6.47387 -3.04684,6.5798 -13.03202,3.79717 l -6.21144,-1.73104 -0.29927,-7.25663 -0.29915,-7.25662 -8.47742,-2.92356 -8.47743,-2.92364 -2.09346,2.66292 c -1.15142,1.46453 -3.04385,3.88888 -4.20566,5.38728 l -2.11221,2.72445 -7.72255,-3.86704 c -4.24734,-2.12681 -7.813,-3.94171 -7.92377,-4.03313 -0.11089,-0.0913 0.53312,-3.08106 1.4306,-6.64372 0.89727,-3.56272 1.45378,-6.62095 1.23646,-6.79614 -0.21757,-0.17505 -3.70648,-2.43592 -7.75358,-5.02395 l -7.35819,-4.7055 -3.57673,3.24832 c -7.18232,6.52274 -6.39547,6.40019 -12.44658,1.93007 -8.56647,-6.32835 -8.62923,-6.46995 -5.55257,-12.54128 1.4559,-2.8729 2.64699,-5.66545 2.64711,-6.20562 -1e-4,-0.54021 -3.01258,-3.62692 -6.69432,-6.85945 l -6.69431,-5.87717 -5.92493,3.38978 -5.92489,3.38987 -5.49556,-6.14092 c -3.02267,-3.37748 -5.49646,-6.54426 -5.49757,-7.03737 -1e-5,-0.4931 1.65891,-3.159 3.68874,-5.92423 2.40371,-3.2745 3.39645,-5.51276 2.84689,-6.41872 -0.46418,-0.76499 -2.85222,-4.21614 -5.30683,-7.66912 l -4.46313,-6.27823 -5.12399,1.94696 c -7.07832,2.68954 -8.58665,2.48706 -10.5576,-1.41759 -0.93406,-1.85045 -2.76408,-5.14938 -4.06661,-7.33072 l -2.36831,-3.96633 5.06855,-4.45973 5.06866,-4.45973 -3.52295,-8.40849 -3.52298,-8.40867 -7.246614,0.27071 -7.246753,0.27078 -2.588107,-7.61483 c -2.923525,-8.60152 -3.262049,-7.77436 5.285122,-12.91548 l 3.732306,-2.245 -2.086363,-9.05837 -2.08636,-9.05838 -4.75156,-0.0144 c -8.288253,-0.0249 -9.085832,-0.55512 -9.842496,-6.54508 -0.371456,-2.94034 -0.937944,-6.82907 -1.259049,-8.64166 -0.578708,-3.26692 -0.527037,-3.31299 5.950728,-5.30161 l 6.534746,-2.00597 -0.317665,-9.19042 c -0.174756,-5.05484 -0.777627,-9.47475 -1.339792,-9.82216 -0.562068,-0.34743 -3.546708,-1.19676 -6.632129,-1.88729 l -5.61033,-1.25555 0.146819,-4.8432 c 0.08095,-2.66365 0.430214,-6.70662 0.776501,-8.9841 z m 73.133324,44.70192 c 1.95708,11.39693 6.71607,26.98411 11.33011,37.10879 6.12548,13.44164 4.46304,13.21688 19.25334,2.60316 7.07275,-5.07542 15.8876,-11.46239 19.58875,-14.19323 3.70094,-2.73074 12.55224,-9.11229 19.66948,-14.18103 7.11733,-5.06887 13.34127,-9.5771 13.83116,-10.01829 0.48989,-0.44128 0.15612,-3.05708 -0.74135,-5.81278 -4.02759,-12.36608 -4.0836,-31.64588 -0.12454,-42.86684 0.84051,-2.3821 1.52819,-4.68466 1.52819,-5.11677 1e-5,-0.72579 -22.65854,-17.5372 -48.65629,-36.10049 -5.97847,-4.26881 -12.1869,-8.83784 -13.79647,-10.15333 -1.60947,-1.31539 -3.38593,-2.39169 -3.94766,-2.39176 -1.39899,-4e-5 -9.487,17.34272 -12.71723,27.26892 -7.34765,22.57904 -9.29307,50.11753 -5.21749,73.85355 z m 50.74946,-121.82728 c 4.4099,3.13157 10.85918,7.76801 14.33158,10.30311 13.16919,9.61433 22.08249,16.14462 29.08883,21.31197 11.84017,8.73222 11.20549,8.50331 15.17886,5.47332 9.78905,-7.46517 26.49617,-13.1419 39.91321,-13.56179 l 7.47093,-0.2337 1.49016,-4.65862 c 0.81965,-2.56224 6.1684,-19.1002 11.88617,-36.75101 5.71766,-17.65086 10.69118,-33.32504 11.05223,-34.83151 0.6448,-2.68916 0.51882,-2.76395 -6.93427,-4.11384 -12.03664,-2.18022 -36.40554,-1.66743 -50.4598,1.06175 -31.50367,6.11778 -60.10706,21.30671 -81.08872,43.05988 -4.60008,4.7694 -5.52588,3.28511 8.07081,12.94052 z m 8.7603,219.0457 c 22.54563,16.42528 46.13105,25.95817 72.96398,29.49079 8.58532,1.13032 38.00116,0.81164 43.4802,-0.471 1.13867,-0.26659 2.88562,-0.52034 3.88199,-0.56392 0.99663,-0.0434 1.81183,-0.70407 1.81184,-1.46765 -1.2e-4,-0.76371 -4.68867,-15.7876 -10.4192,-33.38648 -5.73043,-17.59899 -11.33797,-34.84713 -12.46101,-38.32927 l -2.0419,-6.33112 -9.53789,-0.52039 c -11.83197,-0.64549 -23.13656,-4.2509 -33.80614,-10.78174 l -7.70456,-4.71595 -3.16547,1.80786 c -1.74082,0.99482 -4.09713,2.58986 -5.23599,3.54568 -2.22808,1.87015 -31.51009,23.34592 -35.33486,25.91499 -1.27163,0.85403 -7.08075,5.00777 -12.9093,9.23031 l -10.59728,7.67756 7.70102,7.38355 c 4.23572,4.06092 10.25422,9.24342 13.37457,11.5168 z m 63.89655,-110.34551 c 9.43756,19.32205 33.95015,24.17504 49.79664,9.85882 13.36536,-12.07507 13.37921,-33.11205 0.0299,-45.59902 -6.03225,-5.64239 -10.19833,-7.55302 -18.32027,-8.40195 -14.41796,-1.50696 -27.29255,6.85375 -32.90277,21.36687 -2.09091,5.40882 -1.37371,17.10351 1.39658,22.77525 z m 71.26185,-71.50703 c 5.17169,3.52248 16.39977,15.87933 19.54984,21.51539 1.45152,2.59729 3.88832,7.92009 5.41472,11.82843 l 2.77563,7.10602 41.21641,-2e-5 c 39.72604,0 41.21652,-0.0704 41.21652,-1.95649 0,-2.27869 -3.61632,-19.8934 -5.01787,-24.44211 -12.15021,-39.43098 -38.90541,-71.8573 -76.03978,-92.15742 -3.87093,-2.11596 -7.18443,-3.67571 -7.36361,-3.466 -0.17946,0.20956 -4.33885,12.72651 -9.24351,27.81516 -4.9047,15.08867 -10.52588,32.32535 -12.49117,38.30392 -1.96538,5.97849 -3.60346,11.33586 -3.63995,11.90524 -0.0366,0.56938 1.59373,2.16596 3.6228,3.54785 z m 5.06113,147.47078 c 4.82052,14.87341 10.45235,32.28356 12.51511,38.68908 2.06287,6.40557 4.25168,11.6465 4.8642,11.6465 0.6123,-2e-5 4.63067,-1.93031 8.9295,-4.28964 33.13272,-18.18429 59.28062,-49.05104 71.348,-84.22341 3.23996,-9.44343 7.45518,-26.71128 7.45507,-30.54043 1.1e-4,-2.07037 -0.45091,-2.09023 -41.48906,-1.82254 l -41.4891,0.27053 -1.83199,5.17622 c -4.60053,12.99853 -13.12518,24.96385 -23.48706,32.96604 -3.06412,2.36646 -5.57296,4.47857 -5.57517,4.69369 -3.2e-4,0.21517 3.93998,12.56045 8.7605,27.43396 z"
         id="path97"
         sodipodi:nodetypes="ccccssscsscssscssscscccssscssscssssscssscsscccsscccssscccssccsscsssssssscccsssscsssssssscsscccscscsssscccccssscssscsscccccsscssssscccscssscscsssscsscscsscccccsssscccccssssssscssscccccccssscccccsscssssscssssscccscssscssscccccccsscccsssscssscsccsssssssssssssssssssscsssssssscsssssscsscsssscscsssssssssscsssssssssssssssscsscs"
         inkscape:transform-center-x="-13.550569"
         inkscape:transform-center-y="-13.696506" />
      <path
         style="fill:#4285f4;fill-opacity:1;stroke-width:1.03524"
         d="m 9.305682,-22.720596 0.4027252,-3.825237 7.0368248,-0.69346 7.036836,-0.693359 1.929236,-8.421874 c 1.061258,-4.632008 2.090803,-8.983143 2.288186,-9.669303 0.19726,-0.68602 -2.233521,-2.710413 -5.401882,-4.498507 -3.168473,-1.788084 -5.760798,-3.9218 -5.760787,-4.741447 -1.1e-5,-2.534782 6.583081,-16.948638 7.722867,-16.90949 0.592113,0.02107 3.760696,0.678156 7.041381,1.462206 5.774005,1.379826 6.002511,1.353882 7.14549,-0.813328 0.649883,-1.23112 2.968894,-4.94349 5.154048,-8.249214 l 3.973036,-6.010517 -4.22118,-5.590819 c -4.842147,-6.413341 -4.925519,-6.078805 3.786077,-15.168855 l 4.824072,-5.03373 3.768336,2.25525 c 2.072618,1.24031 4.503843,2.87716 5.402658,3.63738 2.340944,1.9797 2.836689,1.81536 7.566865,-2.51006 2.341266,-2.1406 5.60533,-4.86277 7.25359,-6.04908 l 2.996814,-2.1568 -2.239596,-6.63231 c -2.132163,-6.31302 -2.151668,-6.69876 -0.408814,-8.01039 3.777107,-2.84271 14.003362,-7.54116 15.316551,-7.03729 0.750237,0.28795 2.91455,2.63202 4.809534,5.20906 2.321658,3.1576 3.95142,4.47799 4.99793,4.04908 0.85401,-0.35006 5.04694,-1.91382 9.31725,-3.47529 l 7.76434,-2.8387 0.11919,-6.06418 c 0.0654,-3.33545 0.18219,-6.60451 0.2588,-7.26493 0.0776,-0.66017 3.51687,-1.75238 7.64492,-2.42688 11.95913,-1.95427 11.08361,-2.25512 13.56406,4.66273 l 2.22718,6.21142 10.05206,0.29597 10.05208,0.29562 1.70703,-5.98954 c 0.93896,-3.29434 2.08215,-6.39282 2.54033,-6.88548 0.46707,-0.5025 4.73834,-0.34142 9.72752,0.36682 9.9007,1.40543 9.64467,1.13564 10.16215,10.71135 l 0.27056,5.00603 9.01588,2.89381 9.01564,2.89391 3.61412,-4.63877 c 1.98779,-2.55149 3.77222,-5.11322 3.96537,-5.6927 0.3229,-0.96964 14.05849,5.1688 16.96694,7.5825 0.98498,0.81752 0.82032,2.34315 -0.74445,6.8908 -1.10529,3.2125 -1.88579,6.16706 -1.734,6.56548 0.15132,0.39852 3.68563,3.35218 7.85382,6.5639 l 7.57884,5.83955 5.10536,-3.6679 c 2.80811,-2.01728 5.46708,-3.66779 5.90938,-3.66789 0.4421,0 3.77832,3.00125 7.41383,6.66925 l 6.61004,6.6693 -4.37035,5.788189 -4.37009,5.788071 3.01588,3.847729 c 1.65892,2.116206 4.23029,5.790212 5.71402,8.164287 l 2.69811,4.316894 6.13933,-1.858823 c 3.37662,-1.022342 6.58944,-1.567325 7.13987,-1.211065 1.28056,0.828829 7.50452,14.293777 7.50441,16.235537 1.1e-4,0.80726 -1.97416,2.754667 -4.38726,4.327668 -2.41292,1.572884 -4.81942,3.168037 -5.34788,3.544816 -1.14242,0.814441 3.37293,18.619406 5.00758,19.74522 0.6074,0.418452 3.7516,0.767743 6.98726,0.776501 6.79124,0.01885 6.55184,-0.348169 7.5754,11.597767 l 0.68193,7.958495 -5.44646,1.617443 c -2.99527,0.8894826 -5.99566,1.6168625 -6.66692,1.6173257 -1.29311,7.3e-6 -2.52003,7.5474717 -2.53544,15.5934271 -0.0111,4.6803612 0.0388,4.7441292 5.1771,6.9879482 2.85224,1.245446 5.64726,2.264432 6.21144,2.264448 0.56395,8e-6 1.0138,0.582563 1.00004,1.293995 -0.0377,1.937558 -1.86372,10.070828 -3.28332,14.626005 l -1.25122,4.01464 -6.91686,-0.579826 -6.91697,-0.579835 -2.05455,5.364625 c -1.1299,2.950623 -2.806,7.076185 -3.72456,9.1681 l -1.67021,3.803235 5.22434,4.697202 5.22447,4.697187 -2.861,4.955251 c -1.57353,2.7255 -3.96906,6.448994 -5.32791,8.271765 l -2.47092,3.314125 -5.79395,-2.562313 c -3.18675,-1.409345 -6.09855,-2.434894 -6.47056,-2.279016 -0.37225,0.155996 -3.57263,3.39521 -7.11232,7.198243 l -6.43552,6.914578 3.15578,5.591939 c 1.73576,3.07562 3.15607,6.12098 3.15594,6.767602 1.3e-4,1.23443 -13.10931,11.5975 -14.67087,11.59748 -0.4972,0 -2.97353,-1.90776 -5.5031,-4.23933 -2.52957,-2.33166 -4.97498,-4.0786 -5.43449,-3.88214 -0.45937,0.19634 -4.46623,2.38664 -8.90419,4.86719 -5.73851,3.20735 -7.89951,4.95216 -7.4817,6.04072 0.32315,0.84188 0.86908,3.93683 1.21317,6.87762 l 0.62603,5.34692 -7.33632,2.8469 c -10.35212,4.01709 -11.03196,3.882 -14.33226,-2.84701 -1.53572,-3.13155 -3.04484,-5.68595 -3.35331,-5.67637 -0.30847,0.0104 -4.75343,0.87346 -9.87799,1.91962 l -9.31703,1.90231 -1.03619,6.62107 -1.03609,6.62107 -10.01359,0.29536 -10.0138,0.29534 -0.69604,-5.57134 c -0.38275,-3.06418 -1.0435,-6.13341 -1.46819,-6.82048 -0.42461,-0.68689 -3.99033,-1.68733 -7.92355,-2.22289 -3.93346,-0.53561 -8.10109,-1.19379 -9.26148,-1.46268 -1.70371,-0.39474 -2.76343,0.70039 -5.50611,5.68918 -3.82954,6.9659 -3.24075,6.86377 -15.1593,2.63085 -6.77727,-2.40681 -6.59875,-2.02366 -5.34324,-11.46771 l 0.68827,-5.17617 -8.668485,-4.25504 -8.668473,-4.25504 -3.498348,3.21978 c -7.161923,6.59147 -6.660401,6.47968 -12.068813,2.69137 -2.687231,-1.88232 -6.144552,-4.57892 -7.682827,-5.99252 l -2.797004,-2.57021 3.121769,-5.609752 c 1.716807,-3.08553 2.975436,-5.992484 2.797025,-6.459876 -0.178409,-0.467487 -3.15928,-3.868405 -6.623908,-7.557597 l -6.299355,-6.707665 -6.421447,2.91484 -6.421315,2.914965 -5.121571,-6.941844 c -2.81673,-3.817931 -5.128423,-7.705138 -5.13696,-8.638333 -0.01109,-0.93303 2.166635,-3.593232 4.834151,-5.911412 l 4.849786,-4.214983 -4.073397,-8.869179 -4.073385,-8.869242 -7.188068,0.287349 -7.188091,0.287287 -2.381971,-7.764267 c -1.310067,-4.270361 -2.384686,-8.509469 -2.387846,-9.420151 0,-1.064171 2.234939,-2.543902 6.265092,-4.140954 L 24.199497,16.300808 23.622341,11.38339 C 23.304895,8.6788498 22.776761,4.1963078 22.448548,1.4221259 L 21.852111,-3.6219267 15.201922,-5.4219692 8.5518458,-7.2221143 8.7258313,-13.059855 c 0.095363,-3.210611 0.3553682,-7.558978 0.5766899,-9.662874 z m 48.164179,-7.691838 c 0.996513,-0.07097 4.300152,-0.187601 7.341775,-0.258802 l 5.529951,-0.129388 1.317164,-4.399722 c 2.815321,-9.402071 11.500428,-24.131846 18.637266,-31.607535 l 2.25466,-2.36207 -3.800411,-6.796301 -3.800709,-6.796128 -3.64671,3.464309 c -9.070534,8.617254 -18.820113,24.259125 -23.745965,38.097631 -2.740243,7.698015 -2.766623,10.979372 -0.0876,10.787991 z m 0.115884,57.164973 c 4.298377,12.637766 11.699895,25.045584 21.435947,35.934624 l 5.373596,6.010077 4.038028,-6.742631 4.038113,-6.742632 -4.948463,-6.160616 C 79.558253,39.135863 74.616213,30.09884 70.321406,17.596882 c -0.513554,-1.494574 -1.896283,-1.811757 -7.901843,-1.811725 -8.573225,1.5e-5 -8.568125,-0.01109 -4.833929,10.96732 z m 40.677758,-58.411064 c 3.241327,3.581525 9.288747,1.768445 10.950217,-3.283019 0.71873,-2.185721 -1.91135,-6.980295 -4.23349,-7.717327 -2.37677,-0.754327 -6.978534,0.874296 -7.721983,2.733057 -1.105728,2.763619 -0.660222,6.426859 1.005256,8.267289 z m 0.621836,59.656691 c 0.714878,0.593204 2.537871,1.389454 4.051191,1.769292 5.88166,1.476116 9.79339,-7.817709 4.77084,-11.335531 -4.69676,-3.289667 -10.121934,-0.58345 -10.122038,5.04952 1.14e-4,1.890772 0.58514,3.923281 1.300028,4.516712 z M 124.42415,4.4439738 c 2.98042,7.8437392 8.18491,13.5230382 16.05194,17.5161082 5.98976,3.040283 7.81833,3.472926 14.49734,3.429897 13.50551,-0.08696 24.66597,-7.301314 30.28628,-19.5777132 2.31699,-5.06091255 2.586,-6.80064405 2.19725,-14.208157 -0.53832,-10.2568768 -3.26018,-16.3700598 -10.16307,-22.8269868 -17.2448,-16.130522 -44.60365,-9.29541 -53.48735,13.362691 -1.95763,4.992832 -1.64306,16.3546597 0.61761,22.3041608 z m 4.80045,-102.8436708 3.68783,6.212975 6.40593,-1.498367 c 6.21797,-1.45432 25.18888,-1.301068 34.87504,0.28168 3.49279,0.570678 3.73484,0.39472 6.72601,-4.894822 1.70671,-3.017779 3.24988,-6.043459 3.42961,-6.723479 0.61406,-2.33439 -16.35042,-5.44214 -29.82522,-5.46407 -11.27111,-0.0189 -28.98672,3.05736 -28.98672,5.03275 0,0.46216 1.65925,3.63614 3.68751,7.053333 z m 5.88832,192.462935 c 12.62255,2.5403 28.57856,2.5287 40.37447,-0.0301 4.98197,-1.08034 9.05834,-2.307769 9.05834,-2.727429 -8e-5,-0.419733 -1.5479,-3.491462 -3.44003,-6.826076 -2.51351,-4.430019 -3.97725,-6.000166 -5.43501,-5.829452 -1.0973,0.128473 -6.19124,0.749211 -11.32012,1.379349 -8.61503,1.058564 -13.67871,0.830189 -29.91038,-1.348912 -1.40831,-0.189005 -2.93983,1.352466 -5.39482,5.429628 -1.88565,3.131421 -3.446,6.218405 -3.46819,6.859538 -0.0233,0.650304 4.19327,2.017574 9.5357,3.092804 z m 14.29565,-156.895205 c 3.05415,3.054042 8.18104,2.376882 10.25897,-1.355105 1.42351,-2.556392 1.42353,-3.137403 1.2e-4,-5.693819 -3.03253,-5.446348 -12.39059,-3.296199 -12.39058,2.846926 -1e-5,1.138751 0.95901,3.029516 2.13149,4.201998 z m 2.00932,120.026751 c 3.24452,3.244342 8.04818,2.235257 10.41553,-2.18816 1.47497,-2.755731 -0.47103,-7.825596 -3.35498,-8.740867 -6.82549,-2.166402 -12.0575,5.932033 -7.06055,10.929027 z m 50.22363,-90.669801 c 3.36628,4.448742 10.74552,1.38671 10.8227,-4.490846 0.071,-5.429474 -6.42565,-8.263972 -10.4967,-4.57957 -2.25724,2.042676 -2.4107,6.315421 -0.326,9.070416 z m -0.37702,57.868943 c 1.56645,2.976124 2.88916,3.779164 6.25658,3.798295 3.04816,0.01762 6.01138,-3.237489 6.01139,-6.603218 -1.3e-4,-5.487723 -8.66239,-8.049078 -11.84672,-3.503034 -1.92713,2.751693 -1.96872,3.368622 -0.42125,6.307957 z m 19.73125,-89.792275 c 6.1795,6.790899 12.04574,16.439769 15.49829,25.491798 3.87292,10.153869 4.48765,10.58333 13.61296,9.510761 l 5.57507,-0.655223 -1.95409,-6.345039 c -4.46326,-14.493249 -12.10551,-27.821575 -22.30661,-38.904278 l -6.147,-6.678347 -3.78431,6.678558 c -2.08115,3.67312 -3.79163,6.807086 -3.80038,6.964658 -0.0111,0.157266 1.47907,1.929248 3.30629,3.937324 z m 0.55973,127.386288 3.88212,6.771948 4.5533,-5.006129 c 10.82547,-11.902429 18.42293,-24.56734 22.87552,-38.13376 1.30819,-3.985677 2.59301,-7.828985 2.85536,-8.540737 0.35638,-0.96589 -1.58708,-1.294113 -7.66367,-1.294097 l -8.14078,-7e-6 -1.34988,4.399824 c -2.61618,8.526851 -9.41837,21.039175 -15.05454,27.692659 -3.1351,3.70097 -5.73153,6.866168 -5.76977,7.033769 -0.0333,0.168777 1.67721,3.352024 3.81224,7.076554 z"
         id="path99"
         sodipodi:nodetypes="ccccsssssscscsscsssscsssssscsssscccsssscccsssssscssscccsscsssssssscsscsssscccsscccsscssscsssssssscsssscccccssssssscccssscssscccscscccccscscssccccccsscsscccsssssscccsssssssssssssssssssssssccssscsssccssssssscccssssssssssssssssssssscsscscssccsssscsscsc"
         inkscape:transform-center-x="133.42844"
         inkscape:transform-center-y="-355.70698" />
      <path
         style="fill:#f4b400;fill-opacity:1;stroke-width:1.03524"
         d="m 270.96871,-153.52695 0.41348,-4.30014 6.97319,-0.70031 6.97307,-0.70024 1.67201,-7.94009 c 0.91956,-4.36699 1.96917,-8.67632 2.33264,-9.57637 0.47813,-1.18355 -0.92609,-2.68992 -5.07633,-5.44544 -3.15561,-2.09513 -5.73728,-4.30691 -5.7373,-4.91489 1.3e-4,-0.60807 1.66314,-4.56304 3.69553,-8.78898 4.12084,-8.56726 4.90754,-8.93926 12.92526,-6.11055 2.45193,0.86513 4.79145,1.21449 5.19928,0.77654 0.40774,-0.43817 3.18443,-4.01032 6.17094,-7.93809 5.3675,-7.05981 5.40986,-7.17234 3.68719,-9.83476 -0.95827,-1.48126 -2.50624,-4.20367 -3.44001,-6.04988 -1.64549,-3.25339 -1.62044,-3.43911 0.81953,-6.04676 1.38436,-1.47953 4.74057,-4.32577 7.45819,-6.32485 l 4.94104,-3.63474 5.46231,4.6664 c 5.44633,4.65294 5.46961,4.66115 7.97234,2.7734 1.3805,-1.04132 5.19518,-3.17679 8.47699,-4.74535 l 5.96736,-2.85199 -0.67073,-5.76836 c -0.3689,-3.17257 -0.71241,-6.40158 -0.76376,-7.17564 -0.0932,-1.3989 13.4167,-6.35558 17.32466,-6.35658 1.3196,-3.5e-4 2.69144,1.85927 4.5516,6.17041 l 2.66252,6.17081 4.24791,-0.45361 c 2.33631,-0.24938 6.88293,-0.72517 10.10398,-1.05705 5.28776,-0.54487 5.92123,-0.87364 6.52754,-3.38791 2.70088,-11.19959 2.41535,-10.75782 6.57112,-10.1645 2.10112,0.29982 6.49916,0.83551 9.7732,1.19034 l 5.95253,0.64489 0.0144,5.3605 c 0.0244,9.03639 0.15769,9.1975 10.38206,12.50726 l 9.25183,2.9947 2.34009,-2.97998 c 1.28711,-1.63904 3.27181,-4.05995 4.41069,-5.37956 l 2.07028,-2.39964 6.72902,4.18216 c 3.70115,2.30017 7.42804,4.62194 8.28204,5.15949 1.35344,0.8517 1.23979,1.85574 -0.88361,7.81214 l -2.43655,6.83468 6.57745,6.02704 c 3.61767,3.31495 7.0434,6.09655 7.61277,6.18138 0.90236,0.13449 3.02909,-0.6653 11.12607,-4.18461 1.43838,-0.62517 2.86952,0.72418 6.98772,6.58842 2.84847,4.05598 5.17911,7.96417 5.17911,8.68456 0,0.72051 -2.15369,3.15097 -4.78603,5.40099 l -4.78592,4.09089 3.97237,9.39941 3.97259,9.39931 6.76618,-0.21045 6.76606,-0.21047 1.74107,6.72914 c 0.95757,3.70095 1.77281,8.16129 1.81172,9.91213 0.0677,3.01778 -0.26546,3.28657 -6.3997,5.17624 l -6.47033,1.99309 1e-4,10.23939 -1e-5,10.23958 5.95264,2.12526 c 6.86486,2.45106 7.00001,2.92537 4.03591,14.14677 l -1.7778,6.729 -7.26867,0.30013 -7.26859,0.3001 -4.22085,8.661973 -4.22087,8.661963 4.53707,4.452849 c 2.49526,2.449016 4.53699,4.913016 4.53709,5.475695 -10e-5,1.42044 -4.96798,8.75136 -8.5995,12.690051 l -3.01888,3.274066 -5.98723,-3.265151 -5.98734,-3.265059 -6.579,5.607966 c -3.61854,3.084322 -6.99514,5.965553 -7.50387,6.402508 -0.52585,0.45167 0.10977,3.56021 1.4734,7.206431 2.76376,7.390363 2.7581,7.40072 -6.4589,11.773666 -2.68136,1.272078 -5.64793,2.95448 -6.59265,3.738409 -1.50378,1.248218 -2.03027,1.042829 -4.22897,-1.64969 -1.38115,-1.691338 -3.30429,-4.380708 -4.27362,-5.976243 -1.08644,-1.788183 -2.35959,-2.693695 -3.31895,-2.360626 -0.85612,0.297133 -5.13121,1.602532 -9.50008,2.900924 -8.69255,2.583211 -9.13795,3.178362 -9.13795,12.209623 -1.3e-4,3.584804 -0.26902,3.943453 -3.36452,4.485813 -1.85053,0.324133 -6.39262,0.696832 -10.09354,0.828194 l -6.72914,0.238697 -1.42141,-6.787527 -1.42118,-6.787627 -6.94526,-0.645492 c -3.81977,-0.355003 -8.31752,-0.91995 -9.99484,-1.255415 -2.89158,-0.578363 -3.20616,-0.282827 -6.06239,5.692973 -3.38181,7.075888 -2.05678,6.863116 -14.88378,2.389721 -7.55043,-2.633142 -7.59713,-2.672384 -6.96044,-5.847243 2.0593,-10.269509 2.02517,-10.655702 -1.10949,-12.570901 -1.62975,-0.995571 -5.37248,-3.350541 -8.3172,-5.233019 l -5.35407,-3.422748 -5.14663,4.09778 c -2.83049,2.253857 -5.55277,4.097824 -6.04942,4.097802 -1.16349,3.3e-5 -13.81165,-12.015312 -13.81177,-13.120757 1.2e-4,-0.46034 1.69707,-3.301043 3.77122,-6.312702 l 3.77125,-5.475592 -3.04818,-3.850483 c -1.67655,-2.117883 -4.1103,-5.597553 -5.40852,-7.732725 -2.62481,-4.317122 -3.75625,-4.55847 -11.06355,-2.359295 -2.78314,0.837579 -5.35274,1.18701 -5.71045,0.776421 -0.7243,-0.831556 -7.15746,-16.31573 -7.15757,-17.22779 3.4e-4,-0.31833 2.56216,-2.28021 5.69392,-4.35947 3.13154,-2.07928 5.69384,-3.99704 5.69384,-4.26196 -2.6e-4,-0.26485 -0.74702,-4.5644 -1.66015,-9.55478 l -1.65992,-9.07334 -6.8807,-1.4274 -6.88084,-1.42751 -0.10094,-5.69383 c -0.0554,-3.13163 0.0854,-7.62892 0.31346,-9.99395 z m 92.50107,15.48828 c 2.83174,11.2154 13.94972,19.69657 25.82049,19.69662 12.13367,0 23.12935,-8.54449 25.90962,-20.13387 2.45749,-10.24414 -0.66873,-19.50252 -8.98605,-26.61187 -9.46993,-8.09477 -22.94583,-8.48926 -32.69143,-0.95702 -9.32033,7.20349 -12.83355,16.99122 -10.05263,28.00614 z"
         id="path101"
         sodipodi:nodetypes="ccccsssssssssssscssscsssscssssscsscsscssscsssssscccccssscccsscccccssscccsssssssssssscccssssssscsssscsssssssscccsccssssss"
         inkscape:transform-center-x="-135.26209"
         inkscape:transform-center-y="-339.93097" />
    </g>
  </g>
</svg>
