<svg viewBox="0 0 100 100" width="20" height="20" xmlns="http://www.w3.org/2000/svg">
    <path d="M51.827,0.033C52.336,0.943 52.711,1.905 52.954,2.918C54.274,3.001 55.591,3.139 56.9,3.333C57.347,2.392 57.915,1.529 58.601,0.745C59.802,0.955 60.994,1.208 62.176,1.505C62.484,2.501 62.652,3.519 62.678,4.561C63.952,4.917 65.211,5.326 66.451,5.787C67.085,4.96 67.819,4.234 68.654,3.61C69.785,4.065 70.898,4.56 71.993,5.096C72.087,6.134 72.039,7.166 71.848,8.19C73.021,8.803 74.167,9.465 75.284,10.174C76.076,9.496 76.945,8.939 77.891,8.502C78.903,9.182 79.889,9.898 80.848,10.65C80.725,11.685 80.463,12.684 80.064,13.646C81.083,14.489 82.067,15.375 83.012,16.301C83.928,15.803 84.893,15.439 85.91,15.208C86.758,16.083 87.573,16.989 88.355,17.924C88.019,18.91 87.556,19.833 86.965,20.691C87.787,21.728 88.565,22.799 89.297,23.901C90.296,23.604 91.317,23.449 92.359,23.434C93.006,24.467 93.616,25.522 94.186,26.599C93.653,27.494 93.007,28.3 92.251,29.017C92.839,30.202 93.378,31.411 93.865,32.642C94.904,32.559 95.934,32.619 96.956,32.822C97.375,33.966 97.752,35.125 98.086,36.297C97.378,37.062 96.579,37.716 95.69,38.26C96.019,39.542 96.295,40.836 96.515,42.141C97.548,42.276 98.544,42.549 99.502,42.96C99.673,44.166 99.801,45.379 99.884,46.594C99.032,47.195 98.115,47.669 97.133,48.016C97.188,49.338 97.188,50.662 97.133,51.984C98.115,52.331 99.032,52.805 99.884,53.406C99.801,54.621 99.673,55.834 99.502,57.04C98.544,57.451 97.548,57.724 96.515,57.859C96.295,59.164 96.019,60.458 95.69,61.74C96.579,62.284 97.378,62.938 98.086,63.703C97.752,64.875 97.375,66.034 96.956,67.178C95.934,67.381 94.904,67.441 93.865,67.358C93.378,68.589 92.839,69.798 92.251,70.983C93.007,71.7 93.653,72.506 94.186,73.401C93.616,74.478 93.006,75.533 92.359,76.566C91.317,76.551 90.296,76.396 89.297,76.099C88.565,77.201 87.787,78.272 86.965,79.309C87.556,80.167 88.019,81.09 88.355,82.076C87.573,83.011 86.758,83.917 85.91,84.792C84.893,84.561 83.928,84.197 83.012,83.699C82.067,84.625 81.083,85.511 80.064,86.354C80.463,87.316 80.725,88.315 80.848,89.35C79.889,90.102 78.903,90.818 77.891,91.498C76.945,91.061 76.076,90.504 75.284,89.826C74.167,90.535 73.021,91.197 71.848,91.81C72.039,92.834 72.087,93.866 71.993,94.904C70.898,95.44 69.785,95.935 68.654,96.39C67.819,95.766 67.085,95.04 66.451,94.213C65.211,94.674 63.952,95.083 62.678,95.439C62.652,96.481 62.484,97.499 62.176,98.495C60.994,98.792 59.802,99.045 58.601,99.255C57.915,98.471 57.347,97.608 56.9,96.667C55.591,96.861 54.274,96.999 52.954,97.082C52.711,98.095 52.336,99.057 51.827,99.967C50.609,100.011 49.391,100.011 48.173,99.967C47.664,99.057 47.289,98.095 47.046,97.082C45.726,96.999 44.409,96.861 43.1,96.667C42.653,97.608 42.085,98.471 41.399,99.255C40.198,99.045 39.006,98.792 37.824,98.495C37.516,97.499 37.348,96.481 37.322,95.439C36.048,95.083 34.789,94.674 33.549,94.213C32.915,95.04 32.181,95.766 31.346,96.39C30.215,95.935 29.102,95.44 28.007,94.904C27.913,93.866 27.961,92.834 28.152,91.81C26.979,91.197 25.833,90.535 24.716,89.826C23.924,90.504 23.055,91.061 22.109,91.498C21.097,90.818 20.111,90.102 19.152,89.35C19.275,88.315 19.537,87.316 19.936,86.354C18.917,85.511 17.933,84.625 16.988,83.699C16.072,84.197 15.107,84.561 14.09,84.792C13.242,83.917 12.427,83.011 11.645,82.076C11.981,81.09 12.444,80.167 13.035,79.309C12.213,78.272 11.435,77.201 10.703,76.099C9.704,76.396 8.683,76.551 7.641,76.566C6.994,75.533 6.384,74.478 5.814,73.401C6.347,72.506 6.993,71.7 7.749,70.983C7.161,69.798 6.622,68.589 6.135,67.358C5.096,67.441 4.066,67.381 3.044,67.178C2.625,66.034 2.248,64.875 1.914,63.703C2.622,62.938 3.421,62.284 4.31,61.74C3.981,60.458 3.705,59.164 3.485,57.859C2.452,57.724 1.456,57.451 0.498,57.04C0.327,55.834 0.199,54.621 0.116,53.406C0.968,52.805 1.885,52.331 2.867,51.984C2.812,50.662 2.812,49.338 2.867,48.016C1.885,47.669 0.968,47.195 0.116,46.594C0.199,45.379 0.327,44.166 0.498,42.96C1.456,42.549 2.452,42.276 3.485,42.141C3.705,40.836 3.981,39.542 4.31,38.26C3.421,37.716 2.622,37.062 1.914,36.297C2.248,35.125 2.625,33.966 3.044,32.822C4.066,32.619 5.096,32.559 6.135,32.642C6.622,31.411 7.161,30.202 7.749,29.017C6.993,28.3 6.347,27.494 5.814,26.599C6.384,25.522 6.994,24.467 7.641,23.434C8.683,23.449 9.704,23.604 10.703,23.901C11.435,22.799 12.213,21.728 13.035,20.691C12.444,19.833 11.981,18.91 11.645,17.924C12.427,16.989 13.242,16.083 14.09,15.208C15.107,15.439 16.072,15.803 16.988,16.301C17.933,15.375 18.917,14.489 19.936,13.646C19.537,12.684 19.275,11.685 19.152,10.65C20.111,9.898 21.097,9.182 22.109,8.502C23.055,8.939 23.924,9.496 24.716,10.174C25.833,9.465 26.979,8.803 28.152,8.19C27.961,7.166 27.913,6.134 28.007,5.096C29.102,4.56 30.215,4.065 31.346,3.61C32.181,4.234 32.915,4.96 33.549,5.787C34.789,5.326 36.048,4.917 37.322,4.561C37.348,3.519 37.516,2.501 37.824,1.505C39.006,1.208 40.198,0.955 41.399,0.745C42.085,1.529 42.653,2.392 43.1,3.333C44.409,3.139 45.726,3.001 47.046,2.918C47.289,1.905 47.664,0.943 48.173,0.033C49.391,-0.011 50.609,-0.011 51.827,0.033ZM27.197,74.778L37.946,59.983C35.698,57.273 34.346,53.793 34.346,50C34.346,49.667 34.357,49.336 34.377,49.008L16.976,43.354C16.545,45.503 16.319,47.725 16.319,50C16.319,59.796 20.511,68.622 27.197,74.778ZM53.884,16.541L53.884,34.833C57.792,35.832 61.114,38.303 63.222,41.62L80.622,35.966C75.812,25.497 65.788,17.911 53.884,16.541ZM83.024,43.354L65.623,49.008C65.643,49.336 65.654,49.667 65.654,50C65.654,53.793 64.302,57.273 62.054,59.983L72.803,74.778C79.489,68.622 83.681,59.796 83.681,50C83.681,47.725 83.455,45.503 83.024,43.354ZM66.523,79.35L55.773,64.553C53.986,65.263 52.038,65.654 50,65.654C47.962,65.654 46.014,65.263 44.227,64.553L33.477,79.35C38.359,82.107 43.997,83.681 50,83.681C56.003,83.681 61.641,82.107 66.523,79.35ZM50,43.222C46.259,43.222 43.222,46.259 43.222,50C43.222,53.741 46.259,56.778 50,56.778C53.741,56.778 56.778,53.741 56.778,50C56.778,46.259 53.741,43.222 50,43.222ZM19.378,35.966L36.778,41.62C38.886,38.303 42.208,35.832 46.116,34.833L46.116,16.541C34.212,17.911 24.188,25.497 19.378,35.966Z"/>
</svg>
