<svg width="100%" height="100%" viewBox="0 0 256 256" version="1.1" xmlns="http://www.w3.org/2000/svg" xmlns:xlink="http://www.w3.org/1999/xlink" xml:space="preserve" xmlns:serif="http://www.serif.com/" style="fill-rule:evenodd;clip-rule:evenodd;stroke-linejoin:round;stroke-miterlimit:2;">
    <style>
        .gear {
            transform-box: fill-box;
            transform-origin: center;
            animation-name: rotate;
            animation-duration: 8s;
            animation-iteration-count: infinite;
            animation-timing-function: linear;
            animation-duration: calc((var(--teeth) / 3) * .5s);
        }
        .gear.medium,
        .gear.small {
            animation-direction: reverse;
        }

        @keyframes rotate {
            0% {
                transform: rotate(0deg);
            }
            100% {
                transform: rotate(360deg);
            }
        }
    </style>
    <path class="gear big" style="--teeth:30;fill:rgb(255,8,188);" d="M123.995,23.86C124.73,25.175 125.273,26.566 125.624,28.031C127.533,28.151 129.436,28.351 131.329,28.631C131.976,27.27 132.797,26.023 133.789,24.89C135.525,25.193 137.249,25.559 138.958,25.988C139.404,27.428 139.646,28.9 139.684,30.407C141.527,30.921 143.347,31.512 145.14,32.18C146.056,30.983 147.117,29.934 148.324,29.031C149.959,29.689 151.569,30.406 153.151,31.181C153.288,32.681 153.219,34.172 152.943,35.654C154.638,36.54 156.296,37.497 157.911,38.522C159.056,37.542 160.312,36.737 161.68,36.105C163.143,37.088 164.569,38.124 165.955,39.211C165.777,40.707 165.399,42.151 164.821,43.543C166.295,44.762 167.718,46.042 169.084,47.381C170.408,46.661 171.804,46.134 173.274,45.801C174.5,47.066 175.679,48.376 176.81,49.727C176.324,51.154 175.654,52.488 174.8,53.729C175.988,55.228 177.113,56.776 178.172,58.37C179.616,57.941 181.092,57.716 182.598,57.695C183.535,59.187 184.416,60.714 185.24,62.271C184.469,63.565 183.536,64.731 182.442,65.767C183.293,67.48 184.072,69.229 184.776,71.008C186.278,70.888 187.768,70.975 189.246,71.268C189.851,72.922 190.396,74.599 190.879,76.293C189.855,77.399 188.701,78.345 187.415,79.131C187.891,80.984 188.289,82.856 188.608,84.743C190.102,84.938 191.542,85.332 192.926,85.926C193.175,87.671 193.359,89.424 193.479,91.181C192.248,92.05 190.922,92.736 189.501,93.237C189.581,95.149 189.581,97.063 189.501,98.974C190.922,99.476 192.248,100.161 193.479,101.03C193.359,102.788 193.175,104.54 192.926,106.285C191.542,106.879 190.102,107.273 188.608,107.469C188.289,109.355 187.891,111.227 187.415,113.08C188.701,113.866 189.855,114.812 190.879,115.918C190.396,117.612 189.851,119.289 189.246,120.943C187.768,121.236 186.278,121.323 184.776,121.203C184.072,122.982 183.293,124.731 182.442,126.444C183.536,127.48 184.469,128.646 185.24,129.94C184.416,131.497 183.535,133.024 182.598,134.516C181.092,134.496 179.616,134.271 178.172,133.841C177.113,135.435 175.988,136.983 174.8,138.482C175.654,139.723 176.324,141.057 176.81,142.484C175.679,143.835 174.5,145.145 173.274,146.411C171.804,146.077 170.408,145.55 169.084,144.83C167.718,146.169 166.295,147.449 164.821,148.669C165.399,150.06 165.777,151.504 165.955,153C164.569,154.088 163.143,155.123 161.68,156.106C160.312,155.475 159.056,154.669 157.911,153.689C156.296,154.715 154.638,155.671 152.943,156.558C153.219,158.039 153.288,159.53 153.151,161.031C151.569,161.805 149.959,162.522 148.324,163.18C147.117,162.277 146.056,161.228 145.14,160.032C143.347,160.699 141.527,161.29 139.684,161.804C139.646,163.311 139.404,164.784 138.958,166.223C137.249,166.652 135.525,167.019 133.789,167.322C132.797,166.188 131.976,164.941 131.329,163.58C129.436,163.86 127.533,164.06 125.624,164.18C125.273,165.645 124.73,167.036 123.995,168.351C122.234,168.415 120.472,168.415 118.711,168.351C117.976,167.036 117.433,165.645 117.082,164.18C115.173,164.06 113.269,163.86 111.377,163.58C110.729,164.941 109.909,166.188 108.917,167.322C107.181,167.019 105.457,166.652 103.748,166.223C103.302,164.784 103.06,163.311 103.022,161.804C101.179,161.29 99.359,160.699 97.566,160.032C96.65,161.228 95.588,162.277 94.382,163.18C92.747,162.522 91.137,161.805 89.554,161.031C89.418,159.53 89.487,158.039 89.763,156.558C88.068,155.671 86.41,154.715 84.795,153.689C83.65,154.669 82.394,155.475 81.026,156.106C79.563,155.123 78.137,154.088 76.751,153C76.929,151.504 77.307,150.06 77.885,148.669C76.41,147.449 74.988,146.169 73.622,144.83C72.298,145.55 70.901,146.077 69.432,146.411C68.206,145.145 67.027,143.835 65.896,142.484C66.382,141.057 67.052,139.723 67.906,138.482C66.718,136.983 65.593,135.435 64.534,133.841C63.09,134.271 61.614,134.496 60.108,134.516C59.171,133.024 58.29,131.497 57.466,129.94C58.237,128.646 59.17,127.48 60.263,126.444C59.413,124.731 58.634,122.982 57.93,121.203C56.428,121.323 54.938,121.236 53.46,120.943C52.855,119.289 52.31,117.612 51.827,115.918C52.851,114.812 54.005,113.866 55.291,113.08C54.815,111.227 54.417,109.355 54.098,107.469C52.604,107.273 51.164,106.879 49.779,106.285C49.531,104.54 49.347,102.788 49.227,101.03C50.458,100.161 51.784,99.476 53.205,98.974C53.125,97.063 53.125,95.149 53.205,93.237C51.784,92.736 50.458,92.05 49.227,91.181C49.347,89.424 49.531,87.671 49.779,85.926C51.164,85.332 52.604,84.938 54.098,84.743C54.417,82.856 54.815,80.984 55.291,79.131C54.005,78.345 52.851,77.399 51.827,76.293C52.31,74.599 52.855,72.922 53.46,71.268C54.938,70.975 56.428,70.888 57.93,71.008C58.634,69.229 59.413,67.48 60.263,65.767C59.17,64.731 58.237,63.565 57.466,62.271C58.29,60.714 59.171,59.187 60.108,57.695C61.614,57.716 63.09,57.941 64.534,58.37C65.593,56.776 66.718,55.228 67.906,53.729C67.052,52.488 66.382,51.154 65.896,49.727C67.027,48.376 68.206,47.066 69.432,45.801C70.901,46.134 72.298,46.661 73.622,47.381C74.988,46.042 76.41,44.762 77.885,43.543C77.307,42.151 76.929,40.707 76.751,39.211C78.137,38.124 79.563,37.088 81.026,36.105C82.394,36.737 83.65,37.542 84.795,38.522C86.41,37.497 88.068,36.54 89.763,35.654C89.487,34.172 89.418,32.681 89.554,31.181C91.137,30.406 92.747,29.689 94.382,29.031C95.588,29.934 96.65,30.983 97.566,32.18C99.359,31.512 101.179,30.921 103.022,30.407C103.06,28.9 103.302,27.428 103.748,25.988C105.457,25.559 107.181,25.193 108.917,24.89C109.909,26.023 110.729,27.27 111.377,28.631C113.269,28.351 115.173,28.151 117.082,28.031C117.433,26.566 117.976,25.175 118.711,23.86C120.472,23.796 122.234,23.796 123.995,23.86ZM88.382,131.932L103.924,110.54C100.674,106.621 98.719,101.59 98.719,96.106C98.719,95.624 98.734,95.145 98.764,94.671L73.605,86.496C72.982,89.603 72.655,92.816 72.655,96.106C72.655,110.27 78.715,123.03 88.382,131.932ZM126.968,47.728L126.968,74.175C132.619,75.62 137.422,79.194 140.47,83.99L165.629,75.815C158.674,60.677 144.18,49.708 126.968,47.728ZM169.101,86.496L143.942,94.671C143.971,95.145 143.987,95.624 143.987,96.106C143.987,101.59 142.032,106.621 138.781,110.54L154.324,131.932C163.991,123.03 170.051,110.27 170.051,96.106C170.051,92.816 169.724,89.603 169.101,86.496ZM145.244,138.542L129.7,117.148C127.117,118.175 124.3,118.739 121.353,118.739C118.406,118.739 115.589,118.175 113.006,117.148L97.462,138.542C104.522,142.528 112.674,144.804 121.353,144.804C130.032,144.804 138.184,142.528 145.244,138.542ZM121.353,86.306C115.944,86.306 111.553,90.697 111.553,96.106C111.553,101.514 115.944,105.905 121.353,105.905C126.762,105.905 131.153,101.514 131.153,96.106C131.153,90.697 126.762,86.306 121.353,86.306ZM77.077,75.815L102.236,83.99C105.284,79.194 110.087,75.62 115.737,74.175L115.737,47.728C98.526,49.708 84.032,60.677 77.077,75.815Z" />
    <path class="gear medium" style="--teeth:18;fill:rgb(182,0,137);" d="M61.856,145.585C62.544,147.015 63.03,148.51 63.314,150.072C65.12,150.262 66.91,150.577 68.672,151.017C69.473,149.646 70.441,148.407 71.577,147.299C73.251,147.796 74.893,148.393 76.494,149.088C76.652,150.668 76.597,152.24 76.33,153.804C77.962,154.6 79.537,155.509 81.042,156.524C82.263,155.51 83.597,154.677 85.043,154.024C86.446,155.064 87.785,156.187 89.052,157.388C88.66,158.926 88.071,160.384 87.285,161.763C88.546,163.069 89.715,164.461 90.782,165.93C92.276,165.396 93.815,165.069 95.397,164.95C96.36,166.406 97.234,167.92 98.014,169.482C97.119,170.793 96.067,171.962 94.857,172.988C95.595,174.647 96.217,176.355 96.718,178.101C98.305,178.109 99.862,178.328 101.39,178.758C101.796,180.456 102.1,182.177 102.299,183.911C101.01,184.837 99.621,185.576 98.133,186.127C98.259,187.938 98.259,189.756 98.133,191.567C99.621,192.118 101.01,192.856 102.299,193.783C102.1,195.517 101.796,197.238 101.39,198.936C99.862,199.366 98.305,199.585 96.718,199.593C96.217,201.338 95.595,203.047 94.857,204.705C96.067,205.732 97.119,206.901 98.014,208.212C97.234,209.774 96.36,211.287 95.397,212.744C93.815,212.625 92.276,212.298 90.782,211.763C89.715,213.232 88.546,214.625 87.285,215.931C88.071,217.31 88.66,218.768 89.052,220.306C87.785,221.507 86.446,222.63 85.043,223.669C83.597,223.017 82.263,222.183 81.042,221.169C79.537,222.185 77.962,223.094 76.33,223.89C76.597,225.454 76.652,227.026 76.494,228.605C74.893,229.3 73.251,229.898 71.577,230.395C70.441,229.287 69.473,228.047 68.672,226.677C66.91,227.116 65.12,227.432 63.314,227.622C63.03,229.183 62.544,230.679 61.856,232.109C60.113,232.215 58.365,232.215 56.623,232.109C55.934,230.679 55.448,229.183 55.164,227.622C53.359,227.432 51.568,227.116 49.806,226.677C49.006,228.047 48.037,229.287 46.901,230.395C45.228,229.898 43.586,229.3 41.984,228.605C41.826,227.026 41.881,225.454 42.148,223.89C40.516,223.094 38.942,222.185 37.437,221.169C36.215,222.183 34.882,223.017 33.435,223.669C32.032,222.63 30.694,221.507 29.426,220.306C29.818,218.768 30.407,217.31 31.194,215.931C29.932,214.625 28.764,213.232 27.696,211.763C26.202,212.298 24.664,212.625 23.081,212.744C22.119,211.287 21.245,209.774 20.465,208.212C21.359,206.901 22.411,205.732 23.622,204.705C22.883,203.047 22.261,201.338 21.761,199.593C20.174,199.585 18.616,199.366 17.088,198.936C16.682,197.238 16.379,195.517 16.18,193.783C17.469,192.856 18.857,192.118 20.346,191.567C20.219,189.756 20.219,187.938 20.346,186.127C18.857,185.576 17.469,184.837 16.18,183.911C16.379,182.177 16.682,180.456 17.088,178.758C18.616,178.328 20.174,178.109 21.761,178.101C22.261,176.355 22.883,174.647 23.622,172.988C22.411,171.962 21.359,170.793 20.465,169.482C21.245,167.92 22.119,166.406 23.081,164.95C24.664,165.069 26.202,165.396 27.696,165.93C28.764,164.461 29.932,163.069 31.194,161.763C30.407,160.384 29.818,158.926 29.426,157.388C30.694,156.187 32.032,155.064 33.435,154.024C34.882,154.677 36.215,155.51 37.437,156.524C38.942,155.509 40.516,154.6 42.148,153.804C41.881,152.24 41.826,150.668 41.984,149.088C43.586,148.393 45.228,147.796 46.901,147.299C48.037,148.407 49.006,149.646 49.806,151.017C51.568,150.577 53.359,150.262 55.164,150.072C55.448,148.51 55.934,147.015 56.623,145.585C58.365,145.479 60.113,145.479 61.856,145.585ZM41.262,199.226C41.843,200.233 43.133,200.579 44.14,199.997C45.147,199.416 45.493,198.126 44.911,197.119C44.33,196.112 43.04,195.767 42.033,196.348C41.026,196.929 40.68,198.219 41.262,199.226ZM27.584,181.467L32.521,181.467C33.794,176.855 36.231,172.723 39.495,169.408L37.027,165.133C32.416,169.454 29.064,175.103 27.584,181.467ZM68.676,219.951L66.207,215.675C63.981,216.252 61.646,216.56 59.239,216.56C56.833,216.56 54.498,216.252 52.271,215.675L49.802,219.951C52.789,220.858 55.958,221.345 59.239,221.345C62.521,221.345 65.689,220.858 68.676,219.951ZM77.217,199.226C77.798,198.219 77.453,196.929 76.446,196.348C75.438,195.767 74.149,196.112 73.567,197.119C72.986,198.126 73.331,199.416 74.339,199.997C75.346,200.579 76.635,200.233 77.217,199.226ZM59.239,209.606C60.402,209.606 61.346,208.661 61.346,207.499C61.346,206.336 60.402,205.392 59.239,205.392C58.076,205.392 57.132,206.336 57.132,207.499C57.132,208.661 58.076,209.606 59.239,209.606ZM90.894,196.226L85.957,196.226C84.684,200.839 82.247,204.971 78.983,208.286L81.451,212.561C86.062,208.239 89.414,202.59 90.894,196.226ZM37.027,212.561L39.495,208.286C36.231,204.971 33.794,200.839 32.521,196.226L27.584,196.226C29.064,202.59 32.416,208.239 37.027,212.561ZM59.239,178.4C53.474,178.4 48.793,183.081 48.793,188.847C48.793,194.613 53.474,199.294 59.239,199.294C65.005,199.294 69.686,194.613 69.686,188.847C69.686,183.081 65.005,178.4 59.239,178.4ZM77.217,178.467C76.635,177.46 75.346,177.115 74.339,177.696C73.331,178.278 72.986,179.567 73.567,180.574C74.149,181.582 75.438,181.927 76.446,181.346C77.453,180.764 77.798,179.475 77.217,178.467ZM81.451,165.133L78.983,169.408C82.247,172.723 84.684,176.855 85.957,181.467L90.894,181.467C89.414,175.103 86.062,169.454 81.451,165.133ZM41.262,178.467C40.68,179.475 41.026,180.764 42.033,181.346C43.04,181.927 44.33,181.582 44.911,180.574C45.493,179.567 45.147,178.278 44.14,177.696C43.133,177.115 41.843,177.46 41.262,178.467ZM59.239,168.088C58.076,168.088 57.132,169.032 57.132,170.195C57.132,171.358 58.076,172.302 59.239,172.302C60.402,172.302 61.346,171.358 61.346,170.195C61.346,169.032 60.402,168.088 59.239,168.088ZM49.802,157.742L52.271,162.019C54.498,161.441 56.833,161.134 59.239,161.134C61.646,161.134 63.981,161.441 66.207,162.019L68.676,157.742C65.689,156.836 62.521,156.349 59.239,156.349C55.958,156.349 52.789,156.836 49.802,157.742Z" />
    <path class="gear small" style="--teeth:15;fill:rgb(255,119,221);" d="M206.272,124.448C206.897,125.968 207.325,127.541 207.558,129.168C209.328,129.39 211.076,129.762 212.783,130.278C213.657,128.887 214.688,127.624 215.878,126.489C217.548,127.091 219.172,127.814 220.736,128.653C220.689,130.295 220.441,131.907 219.991,133.488C221.518,134.411 222.963,135.461 224.313,136.628C225.677,135.712 227.133,134.978 228.681,134.425C229.963,135.653 231.152,136.975 232.24,138.377C231.529,139.859 230.646,141.23 229.593,142.492C230.612,143.956 231.505,145.503 232.264,147.117C233.883,146.836 235.511,146.758 237.15,146.882C237.821,148.526 238.371,150.216 238.794,151.94C237.541,153.004 236.177,153.898 234.702,154.622C235.037,156.374 235.224,158.151 235.26,159.934C236.854,160.336 238.374,160.927 239.82,161.707C239.765,163.481 239.579,165.249 239.264,166.996C237.687,167.459 236.078,167.721 234.435,167.782C234.029,169.519 233.477,171.218 232.785,172.862C234.077,173.877 235.226,175.035 236.23,176.336C235.457,177.934 234.568,179.474 233.57,180.942C231.942,180.723 230.365,180.308 228.839,179.696C227.762,181.117 226.566,182.445 225.265,183.665C226.033,185.118 226.611,186.643 226.999,188.24C225.643,189.386 224.205,190.431 222.696,191.366C221.297,190.504 220.026,189.483 218.881,188.304C217.319,189.164 215.687,189.891 214.002,190.476C214.112,192.116 214.02,193.744 213.725,195.36C212.02,195.856 210.282,196.226 208.523,196.466C207.595,195.109 206.849,193.66 206.283,192.117C204.506,192.267 202.719,192.267 200.942,192.117C200.376,193.66 199.63,195.109 198.702,196.466C196.944,196.226 195.205,195.856 193.5,195.36C193.205,193.744 193.113,192.116 193.223,190.476C191.538,189.891 189.906,189.164 188.344,188.304C187.199,189.483 185.928,190.504 184.529,191.366C183.02,190.431 181.582,189.386 180.226,188.24C180.614,186.643 181.192,185.118 181.96,183.665C180.659,182.445 179.463,181.117 178.386,179.696C176.86,180.308 175.284,180.723 173.655,180.942C172.657,179.474 171.768,177.934 170.995,176.336C171.999,175.035 173.148,173.877 174.44,172.862C173.748,171.218 173.196,169.519 172.79,167.782C171.147,167.721 169.538,167.459 167.961,166.996C167.646,165.249 167.46,163.481 167.405,161.707C168.851,160.927 170.371,160.336 171.965,159.934C172.001,158.151 172.188,156.374 172.523,154.622C171.048,153.898 169.684,153.004 168.431,151.94C168.855,150.216 169.404,148.526 170.075,146.882C171.714,146.758 173.342,146.836 174.962,147.117C175.72,145.503 176.613,143.956 177.632,142.492C176.579,141.23 175.697,139.859 174.985,138.377C176.073,136.975 177.262,135.653 178.544,134.425C180.092,134.978 181.548,135.712 182.912,136.628C184.262,135.461 185.707,134.411 187.234,133.488C186.784,131.907 186.536,130.295 186.489,128.653C188.053,127.814 189.677,127.091 191.348,126.489C192.537,127.624 193.568,128.887 194.442,130.278C196.15,129.762 197.897,129.39 199.667,129.168C199.9,127.541 200.328,125.968 200.953,124.448C202.724,124.317 204.501,124.317 206.272,124.448ZM203.613,153.391C199.647,153.391 196.428,156.61 196.428,160.575C196.428,164.541 199.647,167.76 203.613,167.76C207.578,167.76 210.797,164.541 210.797,160.575C210.797,156.61 207.578,153.391 203.613,153.391Z" />
</svg>
