<?xml version="1.0" encoding="UTF-8" standalone="no"?>
<!DOCTYPE svg PUBLIC "-//W3C//DTD SVG 1.1//EN" "http://www.w3.org/Graphics/SVG/1.1/DTD/svg11.dtd">
<svg width="759" height="500" viewBox="0 0 759 500" version="1.1" xmlns="http://www.w3.org/2000/svg" xmlns:xlink="http://www.w3.org/1999/xlink" xml:space="preserve" xmlns:serif="http://www.serif.com/" style="fill-rule:evenodd;clip-rule:evenodd;stroke-linejoin:round;stroke-miterlimit:2;">
    <g>
        <g>
            <path d="M35.428,412.784l-34.96,-96.832l26.573,0l28.96,83.287l-12.676,-0l30.223,-83.287l23.808,0l29.287,83.287l-12.463,-0l29.863,-83.287l24.779,0l-35.069,96.832l-27.11,-0l-25.805,-71.505l8.187,-0l-26.488,71.505l-27.109,-0Z" style="fill:rgb(255,255,255);fill-rule:nonzero;"/>
            <path d="M239.074,414.151c-8.085,-0 -15.207,-1.794 -21.367,-5.382c-6.159,-3.588 -10.939,-9.06 -14.339,-16.415c-3.4,-7.356 -5.101,-16.673 -5.101,-27.951c0,-11.445 1.628,-20.827 4.884,-28.146c3.256,-7.319 7.952,-12.76 14.088,-16.324c6.136,-3.563 13.414,-5.345 21.835,-5.345c9.146,0 17.356,2.052 24.629,6.155c7.273,4.104 13.033,9.875 17.28,17.314c4.247,7.439 6.37,16.221 6.37,26.346c0,10.127 -2.123,18.91 -6.37,26.349c-4.247,7.439 -10.007,13.199 -17.28,17.279c-7.273,4.08 -15.483,6.12 -24.629,6.12Zm-57.119,33.553l-0,-131.752l26.752,0l0,19.837l-0.472,28.724l1.8,28.724l-0,54.467l-28.08,-0Zm52.287,-56.546c4.665,0 8.849,-1.064 12.552,-3.192c3.703,-2.128 6.655,-5.211 8.855,-9.25c2.201,-4.039 3.301,-8.81 3.301,-14.313c-0,-5.623 -1.1,-10.436 -3.301,-14.438c-2.2,-4.002 -5.152,-7.067 -8.855,-9.195c-3.703,-2.129 -7.887,-3.193 -12.552,-3.193c-4.665,0 -8.849,1.064 -12.554,3.193c-3.704,2.128 -6.656,5.193 -8.856,9.195c-2.2,4.002 -3.301,8.815 -3.301,14.438c0,5.503 1.101,10.274 3.301,14.313c2.2,4.039 5.152,7.122 8.856,9.25c3.705,2.128 7.889,3.192 12.554,3.192Z" style="fill:rgb(255,255,255);fill-rule:nonzero;"/>
            <path d="M363.336,414.151c-8.085,-0 -15.207,-1.794 -21.366,-5.382c-6.16,-3.588 -10.94,-9.06 -14.34,-16.415c-3.4,-7.356 -5.1,-16.673 -5.1,-27.951c-0,-11.445 1.628,-20.827 4.883,-28.146c3.256,-7.319 7.952,-12.76 14.088,-16.324c6.136,-3.563 13.415,-5.345 21.835,-5.345c9.146,0 17.356,2.052 24.629,6.155c7.273,4.104 13.033,9.875 17.28,17.314c4.247,7.439 6.371,16.221 6.371,26.346c-0,10.127 -2.124,18.91 -6.371,26.349c-4.247,7.439 -10.007,13.199 -17.28,17.279c-7.273,4.08 -15.483,6.12 -24.629,6.12Zm-57.119,33.553l0,-131.752l26.753,0l-0,19.837l-0.473,28.724l1.8,28.724l0,54.467l-28.08,-0Zm52.287,-56.546c4.665,0 8.849,-1.064 12.552,-3.192c3.704,-2.128 6.655,-5.211 8.856,-9.25c2.2,-4.039 3.3,-8.81 3.3,-14.313c0,-5.623 -1.1,-10.436 -3.3,-14.438c-2.201,-4.002 -5.152,-7.067 -8.856,-9.195c-3.703,-2.129 -7.887,-3.193 -12.552,-3.193c-4.665,0 -8.849,1.064 -12.553,3.193c-3.704,2.128 -6.657,5.193 -8.857,9.195c-2.2,4.002 -3.3,8.815 -3.3,14.438c-0,5.503 1.1,10.274 3.3,14.313c2.2,4.039 5.153,7.122 8.857,9.25c3.704,2.128 7.888,3.192 12.553,3.192Z" style="fill:rgb(255,255,255);fill-rule:nonzero;"/>
            <path d="M478.43,414.151c-11.059,-0 -20.732,-2.148 -29.02,-6.444c-8.287,-4.296 -14.71,-10.205 -19.268,-17.727c-4.558,-7.523 -6.837,-16.072 -6.837,-25.647c-0,-9.672 2.23,-18.256 6.692,-25.754c4.462,-7.498 10.597,-13.371 18.405,-17.619c7.808,-4.248 16.631,-6.372 26.467,-6.372c9.502,0 18.056,2.011 25.66,6.031c7.604,4.021 13.625,9.776 18.062,17.264c4.437,7.487 6.655,16.448 6.655,26.883c0,1.078 -0.041,2.306 -0.125,3.684c-0.083,1.378 -0.185,2.643 -0.305,3.794l-78.713,0l-0,-16.363l63.846,0l-10.848,4.894c0.074,-4.999 -0.924,-9.373 -2.992,-13.122c-2.068,-3.749 -4.899,-6.681 -8.494,-8.797c-3.594,-2.116 -7.796,-3.174 -12.605,-3.174c-4.808,-0 -9.039,1.058 -12.693,3.174c-3.655,2.116 -6.486,5.066 -8.494,8.852c-2.008,3.786 -3.012,8.25 -3.012,13.393l-0,4.382c-0,5.288 1.166,9.92 3.497,13.897c2.332,3.976 5.637,7.041 9.916,9.192c4.278,2.152 9.289,3.228 15.032,3.228c5.14,-0 9.65,-0.781 13.531,-2.343c3.882,-1.562 7.479,-3.941 10.792,-7.138l14.94,16.208c-4.511,5.087 -10.114,8.963 -16.808,11.627c-6.693,2.664 -14.454,3.997 -23.281,3.997Z" style="fill:rgb(255,255,255);fill-rule:nonzero;"/>
            <path d="M600.663,412.784l-0,-18.872l-1.685,-4.247l0,-33.77c0,-6.032 -1.832,-10.706 -5.497,-14.021c-3.664,-3.316 -9.303,-4.974 -16.916,-4.974c-5.092,-0 -10.135,0.798 -15.129,2.394c-4.994,1.597 -9.257,3.776 -12.787,6.538l-10.027,-19.541c5.325,-3.818 11.7,-6.722 19.125,-8.715c7.425,-1.992 14.978,-2.988 22.658,-2.988c14.82,0 26.3,3.472 34.441,10.416c8.142,6.944 12.212,17.767 12.212,32.469l0,55.311l-26.395,-0Zm-29.422,1.367c-7.531,-0 -13.997,-1.272 -19.397,-3.816c-5.4,-2.543 -9.535,-6.034 -12.404,-10.473c-2.868,-4.439 -4.303,-9.442 -4.303,-15.009c0,-5.708 1.403,-10.728 4.208,-15.06c2.805,-4.332 7.266,-7.729 13.383,-10.189c6.117,-2.461 14.095,-3.692 23.933,-3.692l25.625,0l-0,16.363l-22.511,0c-6.638,0 -11.182,1.07 -13.633,3.211c-2.45,2.14 -3.676,4.88 -3.676,8.219c0,3.51 1.395,6.323 4.185,8.439c2.79,2.116 6.627,3.174 11.509,3.174c4.716,0 8.95,-1.094 12.701,-3.282c3.752,-2.188 6.458,-5.482 8.117,-9.88l4.242,13.038c-1.994,6.162 -5.692,10.861 -11.094,14.099c-5.403,3.238 -12.365,4.858 -20.885,4.858Z" style="fill:rgb(255,255,255);fill-rule:nonzero;"/>
            <path d="M675.569,393.001l0.683,-34.305l45.205,-42.744l33.509,0l-43.482,44.12l-14.473,11.928l-21.442,21.001Zm-23.158,19.783l-0,-133.56l28.08,-0l-0,133.56l-28.08,-0Zm72.076,-0l-32.648,-40.607l17.528,-21.876l49.165,62.483l-34.045,-0Z" style="fill:rgb(255,255,255);fill-rule:nonzero;"/>
        </g>
        <g>
            <path d="M530.142,499.938c-2.619,-0 -4.836,-0.879 -6.65,-2.636c-1.814,-1.757 -2.721,-3.996 -2.721,-6.717c0,-2.785 0.907,-5.027 2.721,-6.727c1.814,-1.699 4.031,-2.549 6.65,-2.549c2.58,0 4.777,0.85 6.591,2.549c1.814,1.7 2.721,3.942 2.721,6.727c-0,2.721 -0.907,4.96 -2.721,6.717c-1.814,1.757 -4.011,2.636 -6.591,2.636Z" style="fill:rgb(255,255,255);fill-rule:nonzero;"/>
            <path d="M573.9,499.938c-5.553,-0 -10.501,-1.133 -14.845,-3.399c-4.343,-2.265 -7.746,-5.404 -10.209,-9.417c-2.463,-4.012 -3.695,-8.597 -3.695,-13.754c0,-5.196 1.232,-9.784 3.695,-13.764c2.463,-3.98 5.866,-7.103 10.209,-9.368c4.344,-2.266 9.292,-3.398 14.845,-3.398c5.434,-0 10.172,1.125 14.214,3.375c4.042,2.25 7.005,5.478 8.888,9.685l-11.529,6.287c-1.397,-2.432 -3.102,-4.221 -5.114,-5.367c-2.012,-1.146 -4.197,-1.719 -6.555,-1.719c-2.527,-0 -4.816,0.567 -6.868,1.702c-2.052,1.135 -3.671,2.764 -4.857,4.886c-1.186,2.122 -1.779,4.682 -1.779,7.681c-0,2.999 0.593,5.566 1.779,7.7c1.186,2.135 2.805,3.77 4.857,4.905c2.052,1.135 4.341,1.702 6.868,1.702c2.358,0 4.543,-0.563 6.555,-1.69c2.012,-1.126 3.717,-2.925 5.114,-5.396l11.529,6.287c-1.883,4.169 -4.846,7.388 -8.888,9.657c-4.042,2.27 -8.78,3.405 -14.214,3.405Z" style="fill:rgb(255,255,255);fill-rule:nonzero;"/>
            <path d="M629.586,499.938c-5.471,-0 -10.335,-1.14 -14.591,-3.418c-4.257,-2.279 -7.61,-5.421 -10.06,-9.428c-2.45,-4.006 -3.675,-8.584 -3.675,-13.734c-0,-5.189 1.229,-9.775 3.686,-13.757c2.458,-3.982 5.807,-7.105 10.047,-9.368c4.241,-2.264 9.105,-3.395 14.593,-3.395c5.489,-0 10.371,1.13 14.645,3.391c4.275,2.261 7.624,5.38 10.047,9.358c2.424,3.977 3.635,8.568 3.635,13.772c0,5.163 -1.209,9.744 -3.627,13.744c-2.419,3.999 -5.773,7.138 -10.062,9.417c-4.289,2.278 -9.168,3.418 -14.638,3.418Zm-0,-12.263c2.527,0 4.778,-0.567 6.753,-1.702c1.975,-1.135 3.54,-2.786 4.694,-4.953c1.155,-2.166 1.732,-4.719 1.732,-7.659c-0,-2.994 -0.577,-5.552 -1.732,-7.674c-1.154,-2.122 -2.719,-3.751 -4.694,-4.886c-1.975,-1.135 -4.216,-1.702 -6.723,-1.702c-2.508,-0 -4.75,0.567 -6.725,1.702c-1.975,1.135 -3.549,2.764 -4.722,4.886c-1.174,2.122 -1.761,4.68 -1.761,7.674c0,2.94 0.587,5.493 1.761,7.659c1.173,2.167 2.746,3.818 4.719,4.953c1.972,1.135 4.205,1.702 6.698,1.702Z" style="fill:rgb(255,255,255);fill-rule:nonzero;"/>
            <path d="M667.973,499.209l0,-51.644l14.268,0l0,14.088l-2.718,-4.108c1.791,-3.505 4.341,-6.166 7.65,-7.983c3.308,-1.816 7.068,-2.724 11.28,-2.724c4.724,-0 8.862,1.19 12.414,3.57c3.552,2.381 5.917,6.047 7.094,10.999l-5.291,-1.461c1.726,-4.004 4.487,-7.19 8.283,-9.557c3.796,-2.368 8.184,-3.551 13.164,-3.551c4.084,-0 7.71,0.806 10.878,2.418c3.168,1.613 5.655,4.099 7.459,7.458c1.805,3.36 2.707,7.676 2.707,12.948l-0,29.547l-14.976,-0l-0,-27.309c-0,-4.152 -0.863,-7.216 -2.588,-9.19c-1.725,-1.975 -4.127,-2.962 -7.207,-2.962c-2.207,0 -4.17,0.494 -5.889,1.481c-1.719,0.988 -3.056,2.469 -4.012,4.443c-0.955,1.975 -1.433,4.513 -1.433,7.615l-0,25.922l-14.978,-0l0,-27.309c0,-4.152 -0.849,-7.216 -2.549,-9.19c-1.699,-1.975 -4.115,-2.962 -7.246,-2.962c-2.206,0 -4.168,0.494 -5.888,1.481c-1.719,0.988 -3.057,2.469 -4.012,4.443c-0.956,1.975 -1.434,4.513 -1.434,7.615l0,25.922l-14.976,-0Z" style="fill:rgb(255,255,255);fill-rule:nonzero;"/>
        </g>
        <path d="M384.219,1.919c0.941,-1.165 2.356,-1.846 3.854,-1.856c1.499,-0.011 2.922,0.652 3.88,1.804l211.322,254.356c1.239,1.492 1.504,3.565 0.681,5.32c-0.824,1.755 -2.588,2.876 -4.527,2.876l-459.064,-0.002c-1.921,0 -3.672,-1.1 -4.505,-2.831c-0.834,-1.731 -0.601,-3.787 0.597,-5.288l125.632,-157.391c0.839,-1.051 2.066,-1.72 3.404,-1.855c1.338,-0.136 2.674,0.273 3.707,1.135l18.315,15.28c1.028,0.858 2.358,1.268 3.691,1.137c1.333,-0.131 2.558,-0.791 3.4,-1.833l89.613,-110.852Zm1.007,64.167l-110.45,125.225c-0.733,0.831 -0.747,2.073 -0.032,2.92c0.715,0.847 1.943,1.041 2.885,0.458l82.434,-51.078c0.98,-0.608 2.262,-0.369 2.958,0.55l23.954,31.608c0.464,0.612 1.21,0.943 1.975,0.877c0.765,-0.067 1.443,-0.522 1.794,-1.205l17.215,-33.481c0.283,-0.551 0.782,-0.959 1.378,-1.128c0.595,-0.169 1.234,-0.084 1.764,0.236l67.296,40.602c0.933,0.562 2.136,0.371 2.847,-0.454c0.712,-0.825 0.725,-2.043 0.031,-2.883l-92.65,-112.192c-0.417,-0.504 -1.033,-0.801 -1.687,-0.811c-0.654,-0.011 -1.28,0.266 -1.712,0.756Z" style="fill:rgb(255,255,255);fill-opacity:0.97;"/>
    </g>
</svg>
